<mxfile host="app.diagrams.net" modified="2023-09-29T09:20:29.069Z" agent="Mozilla/5.0 (Macintosh; Intel Mac OS X 10_15_7) AppleWebKit/537.36 (KHTML, like Gecko) Chrome/117.0.0.0 Safari/537.36" etag="EE7urvJKHejJF060TgGa" version="22.0.0" type="github" pages="7">
  <diagram name="DCU-1-CATALOGUE" id="7dpw0_pMJvslr6yB-3tk">
    <mxGraphModel dx="1594" dy="1160" grid="0" gridSize="10" guides="1" tooltips="1" connect="1" arrows="1" fold="1" page="0" pageScale="1" pageWidth="827" pageHeight="1169" math="0" shadow="0">
      <root>
        <mxCell id="0" />
        <mxCell id="1" parent="0" />
        <mxCell id="E3rHRYDPcAafz-4ncIo_-1" value="Administrateur&lt;br&gt;" style="shape=umlActor;verticalLabelPosition=bottom;verticalAlign=top;html=1;" parent="1" vertex="1">
          <mxGeometry x="-80" y="380" width="30" height="60" as="geometry" />
        </mxCell>
        <mxCell id="E3rHRYDPcAafz-4ncIo_-5" value="&lt;font style=&quot;font-size: 10px;&quot;&gt;CONSULTER LISTE DE PRODUIT&lt;/font&gt;" style="ellipse;whiteSpace=wrap;html=1;" parent="1" vertex="1">
          <mxGeometry x="174" y="10" width="120" height="50" as="geometry" />
        </mxCell>
        <mxCell id="E3rHRYDPcAafz-4ncIo_-6" value="&amp;lt;&amp;lt;include&amp;gt;&amp;gt;" style="html=1;verticalAlign=bottom;labelBackgroundColor=none;endArrow=open;endFill=0;dashed=1;rounded=0;" parent="1" source="E3rHRYDPcAafz-4ncIo_-10" target="E3rHRYDPcAafz-4ncIo_-5" edge="1">
          <mxGeometry x="-0.279" y="-1" width="160" relative="1" as="geometry">
            <mxPoint x="310" y="240" as="sourcePoint" />
            <mxPoint x="470" y="240" as="targetPoint" />
            <mxPoint y="-1" as="offset" />
          </mxGeometry>
        </mxCell>
        <mxCell id="E3rHRYDPcAafz-4ncIo_-10" value="&lt;b&gt;GÉRER PRODUIT&lt;/b&gt;" style="ellipse;whiteSpace=wrap;html=1;" parent="1" vertex="1">
          <mxGeometry x="270" y="190" width="120" height="50" as="geometry" />
        </mxCell>
        <mxCell id="E3rHRYDPcAafz-4ncIo_-11" value="&lt;font style=&quot;font-size: 10px;&quot;&gt;CREER PRODUIT&lt;/font&gt;" style="ellipse;whiteSpace=wrap;html=1;" parent="1" vertex="1">
          <mxGeometry x="340" y="50" width="120" height="50" as="geometry" />
        </mxCell>
        <mxCell id="E3rHRYDPcAafz-4ncIo_-12" value="&lt;font style=&quot;font-size: 10px;&quot;&gt;MODIFIER PRODUIT&lt;/font&gt;" style="ellipse;whiteSpace=wrap;html=1;" parent="1" vertex="1">
          <mxGeometry x="480" y="60" width="120" height="50" as="geometry" />
        </mxCell>
        <mxCell id="E3rHRYDPcAafz-4ncIo_-14" value="&lt;font style=&quot;font-size: 10px;&quot;&gt;CONSULTER PRODUIT&lt;/font&gt;" style="ellipse;whiteSpace=wrap;html=1;" parent="1" vertex="1">
          <mxGeometry x="100" y="130" width="120" height="50" as="geometry" />
        </mxCell>
        <mxCell id="E3rHRYDPcAafz-4ncIo_-24" value="&lt;font style=&quot;font-size: 10px;&quot;&gt;SUPPRIMER PROMOTION&lt;/font&gt;" style="ellipse;whiteSpace=wrap;html=1;" parent="1" vertex="1">
          <mxGeometry x="530" y="440" width="120" height="50" as="geometry" />
        </mxCell>
        <mxCell id="E3rHRYDPcAafz-4ncIo_-28" value="&lt;font style=&quot;font-size: 10px;&quot;&gt;ATTRIBUER PROMOTION&lt;/font&gt;" style="ellipse;whiteSpace=wrap;html=1;" parent="1" vertex="1">
          <mxGeometry x="180" y="300" width="120" height="50" as="geometry" />
        </mxCell>
        <mxCell id="E3rHRYDPcAafz-4ncIo_-41" value="" style="endArrow=none;startArrow=none;endFill=0;startFill=0;endSize=8;html=1;verticalAlign=bottom;labelBackgroundColor=none;strokeWidth=1;rounded=0;" parent="1" source="E3rHRYDPcAafz-4ncIo_-1" target="E3rHRYDPcAafz-4ncIo_-10" edge="1">
          <mxGeometry width="160" relative="1" as="geometry">
            <mxPoint x="40" y="305" as="sourcePoint" />
            <mxPoint x="74.13105654844094" y="361.11611526676415" as="targetPoint" />
          </mxGeometry>
        </mxCell>
        <mxCell id="E3rHRYDPcAafz-4ncIo_-42" value="&amp;lt;&amp;lt;include&amp;gt;&amp;gt;" style="html=1;verticalAlign=bottom;labelBackgroundColor=none;endArrow=open;endFill=0;dashed=1;rounded=0;" parent="1" source="E3rHRYDPcAafz-4ncIo_-10" target="E3rHRYDPcAafz-4ncIo_-43" edge="1">
          <mxGeometry x="-0.279" y="-1" width="160" relative="1" as="geometry">
            <mxPoint x="120" y="320" as="sourcePoint" />
            <mxPoint x="260" y="308" as="targetPoint" />
            <mxPoint y="-1" as="offset" />
          </mxGeometry>
        </mxCell>
        <mxCell id="E3rHRYDPcAafz-4ncIo_-43" value="&lt;font size=&quot;1&quot; style=&quot;&quot;&gt;&lt;b style=&quot;font-size: 12px;&quot;&gt;S&#39;AUTHENTIFIER&lt;/b&gt;&lt;/font&gt;" style="ellipse;whiteSpace=wrap;html=1;" parent="1" vertex="1">
          <mxGeometry x="710" y="300" width="120" height="50" as="geometry" />
        </mxCell>
        <mxCell id="2rmqdx88q6LqFFhBnuin-1" value="&lt;font style=&quot;font-size: 10px;&quot;&gt;MODIFIER INFOS PRODUIT&lt;/font&gt;" style="ellipse;whiteSpace=wrap;html=1;" parent="1" vertex="1">
          <mxGeometry x="700" y="30" width="120" height="50" as="geometry" />
        </mxCell>
        <mxCell id="2rmqdx88q6LqFFhBnuin-5" value="&lt;font style=&quot;font-size: 10px; font-weight: normal;&quot;&gt;MODIFIER MAGES PRODUIT&lt;/font&gt;" style="ellipse;whiteSpace=wrap;html=1;fontStyle=1;" parent="1" vertex="1">
          <mxGeometry x="640" y="-120" width="120" height="50" as="geometry" />
        </mxCell>
        <mxCell id="2rmqdx88q6LqFFhBnuin-6" value="&lt;font style=&quot;font-size: 10px; font-weight: normal;&quot;&gt;SUPPRIMER MAGES PRODUIT&lt;/font&gt;" style="ellipse;whiteSpace=wrap;html=1;fontStyle=1;" parent="1" vertex="1">
          <mxGeometry x="730" y="-50" width="120" height="50" as="geometry" />
        </mxCell>
        <mxCell id="2rmqdx88q6LqFFhBnuin-14" value="&amp;lt;&amp;lt;extend&amp;gt;&amp;gt;" style="html=1;verticalAlign=bottom;labelBackgroundColor=none;endArrow=open;endFill=0;dashed=1;rounded=0;" parent="1" source="2rmqdx88q6LqFFhBnuin-7" target="E3rHRYDPcAafz-4ncIo_-12" edge="1">
          <mxGeometry width="160" relative="1" as="geometry">
            <mxPoint x="620" y="-20" as="sourcePoint" />
            <mxPoint x="280" y="-120" as="targetPoint" />
          </mxGeometry>
        </mxCell>
        <mxCell id="2rmqdx88q6LqFFhBnuin-16" value="&amp;lt;&amp;lt;extend&amp;gt;&amp;gt;" style="html=1;verticalAlign=bottom;labelBackgroundColor=none;endArrow=open;endFill=0;dashed=1;rounded=0;" parent="1" source="2rmqdx88q6LqFFhBnuin-4" target="E3rHRYDPcAafz-4ncIo_-12" edge="1">
          <mxGeometry width="160" relative="1" as="geometry">
            <mxPoint x="460" y="-11" as="sourcePoint" />
            <mxPoint x="530" y="71" as="targetPoint" />
          </mxGeometry>
        </mxCell>
        <mxCell id="2rmqdx88q6LqFFhBnuin-17" value="&amp;lt;&amp;lt;extend&amp;gt;&amp;gt;" style="html=1;verticalAlign=bottom;labelBackgroundColor=none;endArrow=open;endFill=0;dashed=1;rounded=0;" parent="1" source="2rmqdx88q6LqFFhBnuin-5" target="E3rHRYDPcAafz-4ncIo_-12" edge="1">
          <mxGeometry width="160" relative="1" as="geometry">
            <mxPoint x="690" y="-73" as="sourcePoint" />
            <mxPoint x="551" y="70" as="targetPoint" />
          </mxGeometry>
        </mxCell>
        <mxCell id="2rmqdx88q6LqFFhBnuin-18" value="&amp;lt;&amp;lt;extend&amp;gt;&amp;gt;" style="html=1;verticalAlign=bottom;labelBackgroundColor=none;endArrow=open;endFill=0;dashed=1;rounded=0;" parent="1" source="2rmqdx88q6LqFFhBnuin-6" target="E3rHRYDPcAafz-4ncIo_-12" edge="1">
          <mxGeometry width="160" relative="1" as="geometry">
            <mxPoint x="569" y="-50" as="sourcePoint" />
            <mxPoint x="561" y="80" as="targetPoint" />
          </mxGeometry>
        </mxCell>
        <mxCell id="2rmqdx88q6LqFFhBnuin-19" value="&amp;lt;&amp;lt;extend&amp;gt;&amp;gt;" style="html=1;verticalAlign=bottom;labelBackgroundColor=none;endArrow=open;endFill=0;dashed=1;rounded=0;" parent="1" source="2rmqdx88q6LqFFhBnuin-1" target="E3rHRYDPcAafz-4ncIo_-12" edge="1">
          <mxGeometry width="160" relative="1" as="geometry">
            <mxPoint x="759" y="3" as="sourcePoint" />
            <mxPoint x="591" y="77" as="targetPoint" />
          </mxGeometry>
        </mxCell>
        <mxCell id="2rmqdx88q6LqFFhBnuin-22" value="" style="endArrow=none;startArrow=none;endFill=0;startFill=0;endSize=8;html=1;verticalAlign=bottom;labelBackgroundColor=none;strokeWidth=1;rounded=0;exitX=0.667;exitY=0.667;exitDx=0;exitDy=0;exitPerimeter=0;" parent="1" source="E3rHRYDPcAafz-4ncIo_-1" target="E3rHRYDPcAafz-4ncIo_-20" edge="1">
          <mxGeometry width="160" relative="1" as="geometry">
            <mxPoint x="-30" y="423" as="sourcePoint" />
            <mxPoint x="311" y="254" as="targetPoint" />
          </mxGeometry>
        </mxCell>
        <mxCell id="2rmqdx88q6LqFFhBnuin-24" value="&amp;lt;&amp;lt;include&amp;gt;&amp;gt;" style="html=1;verticalAlign=bottom;labelBackgroundColor=none;endArrow=open;endFill=0;dashed=1;rounded=0;" parent="1" source="E3rHRYDPcAafz-4ncIo_-20" target="E3rHRYDPcAafz-4ncIo_-43" edge="1">
          <mxGeometry x="-0.279" y="-1" width="160" relative="1" as="geometry">
            <mxPoint x="407" y="243" as="sourcePoint" />
            <mxPoint x="883" y="307" as="targetPoint" />
            <mxPoint y="-1" as="offset" />
          </mxGeometry>
        </mxCell>
        <mxCell id="TuNWIw-8EqaQyu-kZ0oL-1" value="Gestion du catalogue" style="shape=umlFrame;whiteSpace=wrap;html=1;pointerEvents=0;recursiveResize=0;container=1;collapsible=0;width=160;" parent="1" vertex="1">
          <mxGeometry x="70" y="-160" width="810" height="820" as="geometry" />
        </mxCell>
        <mxCell id="E3rHRYDPcAafz-4ncIo_-20" value="&lt;font style=&quot;font-size: 12px;&quot;&gt;&lt;b&gt;GÉRER PROMOTION&lt;/b&gt;&lt;/font&gt;" style="ellipse;whiteSpace=wrap;html=1;" parent="TuNWIw-8EqaQyu-kZ0oL-1" vertex="1">
          <mxGeometry x="200" y="570" width="120" height="50" as="geometry" />
        </mxCell>
        <mxCell id="E3rHRYDPcAafz-4ncIo_-75" value="&lt;font style=&quot;font-size: 10px;&quot;&gt;CONSULTER LISTE DE PROMOTION&lt;/font&gt;" style="ellipse;whiteSpace=wrap;html=1;" parent="TuNWIw-8EqaQyu-kZ0oL-1" vertex="1">
          <mxGeometry x="160" y="690" width="120" height="50" as="geometry" />
        </mxCell>
        <mxCell id="E3rHRYDPcAafz-4ncIo_-76" value="&amp;lt;&amp;lt;include&amp;gt;&amp;gt;" style="html=1;verticalAlign=bottom;labelBackgroundColor=none;endArrow=open;endFill=0;dashed=1;rounded=0;" parent="TuNWIw-8EqaQyu-kZ0oL-1" source="E3rHRYDPcAafz-4ncIo_-20" target="E3rHRYDPcAafz-4ncIo_-75" edge="1">
          <mxGeometry x="-0.279" y="-1" width="160" relative="1" as="geometry">
            <mxPoint x="252" y="361" as="sourcePoint" />
            <mxPoint x="218" y="319" as="targetPoint" />
            <mxPoint y="-1" as="offset" />
          </mxGeometry>
        </mxCell>
        <mxCell id="E3rHRYDPcAafz-4ncIo_-22" value="&lt;font style=&quot;font-size: 10px;&quot;&gt;CREER PRMOTION&lt;/font&gt;" style="ellipse;whiteSpace=wrap;html=1;" parent="TuNWIw-8EqaQyu-kZ0oL-1" vertex="1">
          <mxGeometry x="320" y="690" width="120" height="50" as="geometry" />
        </mxCell>
        <mxCell id="E3rHRYDPcAafz-4ncIo_-23" value="&lt;font style=&quot;font-size: 10px;&quot;&gt;MODIFIER PROMOTION&lt;/font&gt;" style="ellipse;whiteSpace=wrap;html=1;" parent="TuNWIw-8EqaQyu-kZ0oL-1" vertex="1">
          <mxGeometry x="450" y="670" width="120" height="50" as="geometry" />
        </mxCell>
        <mxCell id="E3rHRYDPcAafz-4ncIo_-13" value="&lt;font style=&quot;font-size: 10px;&quot;&gt;SUPPRIMER PRODUIT&lt;/font&gt;" style="ellipse;whiteSpace=wrap;html=1;" parent="TuNWIw-8EqaQyu-kZ0oL-1" vertex="1">
          <mxGeometry x="450" y="280" width="120" height="50" as="geometry" />
        </mxCell>
        <mxCell id="E3rHRYDPcAafz-4ncIo_-30" value="&lt;font style=&quot;font-size: 10px;&quot;&gt;RETIRER PROMOTION&lt;/font&gt;" style="ellipse;whiteSpace=wrap;html=1;" parent="TuNWIw-8EqaQyu-kZ0oL-1" vertex="1">
          <mxGeometry x="490" y="356" width="120" height="50" as="geometry" />
        </mxCell>
        <mxCell id="E3rHRYDPcAafz-4ncIo_-49" value="&lt;font style=&quot;font-size: 10px;&quot;&gt;EXPORTER LA LISTE DE PRODUIT PRODUIT&lt;/font&gt;" style="ellipse;whiteSpace=wrap;html=1;" parent="TuNWIw-8EqaQyu-kZ0oL-1" vertex="1">
          <mxGeometry x="292" y="460" width="127" height="57" as="geometry" />
        </mxCell>
        <mxCell id="FDVOKYXHEH1saNnxTikK-17" value="" style="endArrow=block;html=1;rounded=0;align=center;verticalAlign=bottom;endFill=0;labelBackgroundColor=none;endSize=8;" edge="1" parent="TuNWIw-8EqaQyu-kZ0oL-1" source="E3rHRYDPcAafz-4ncIo_-22" target="E3rHRYDPcAafz-4ncIo_-20">
          <mxGeometry relative="1" as="geometry">
            <mxPoint x="180" y="790" as="sourcePoint" />
            <mxPoint x="340" y="790" as="targetPoint" />
          </mxGeometry>
        </mxCell>
        <mxCell id="FDVOKYXHEH1saNnxTikK-18" value="" style="resizable=0;html=1;align=center;verticalAlign=top;labelBackgroundColor=none;" connectable="0" vertex="1" parent="FDVOKYXHEH1saNnxTikK-17">
          <mxGeometry relative="1" as="geometry" />
        </mxCell>
        <mxCell id="FDVOKYXHEH1saNnxTikK-19" value="" style="endArrow=block;html=1;rounded=0;align=center;verticalAlign=bottom;endFill=0;labelBackgroundColor=none;endSize=8;" edge="1" parent="TuNWIw-8EqaQyu-kZ0oL-1" source="E3rHRYDPcAafz-4ncIo_-23" target="E3rHRYDPcAafz-4ncIo_-20">
          <mxGeometry relative="1" as="geometry">
            <mxPoint x="190" y="800" as="sourcePoint" />
            <mxPoint x="350" y="800" as="targetPoint" />
          </mxGeometry>
        </mxCell>
        <mxCell id="FDVOKYXHEH1saNnxTikK-20" value="" style="resizable=0;html=1;align=center;verticalAlign=top;labelBackgroundColor=none;" connectable="0" vertex="1" parent="FDVOKYXHEH1saNnxTikK-19">
          <mxGeometry relative="1" as="geometry" />
        </mxCell>
        <mxCell id="2rmqdx88q6LqFFhBnuin-4" value="&lt;font style=&quot;font-size: 10px; font-weight: normal;&quot;&gt;AJOUTER IMAGES PRODUIT&lt;/font&gt;" style="ellipse;whiteSpace=wrap;html=1;fontStyle=1;" parent="TuNWIw-8EqaQyu-kZ0oL-1" vertex="1">
          <mxGeometry x="297" y="89" width="120" height="50" as="geometry" />
        </mxCell>
        <mxCell id="2rmqdx88q6LqFFhBnuin-7" value="&lt;font style=&quot;font-size: 10px; font-weight: normal;&quot;&gt;CONSULTER MAGES PRODUIT&lt;/font&gt;" style="ellipse;whiteSpace=wrap;html=1;fontStyle=1;" parent="TuNWIw-8EqaQyu-kZ0oL-1" vertex="1">
          <mxGeometry x="407" y="36" width="120" height="50" as="geometry" />
        </mxCell>
        <mxCell id="FDVOKYXHEH1saNnxTikK-1" value="" style="endArrow=block;html=1;rounded=0;align=center;verticalAlign=bottom;endFill=0;labelBackgroundColor=none;endSize=8;" edge="1" parent="1" source="E3rHRYDPcAafz-4ncIo_-49" target="E3rHRYDPcAafz-4ncIo_-10">
          <mxGeometry relative="1" as="geometry">
            <mxPoint x="448" y="340" as="sourcePoint" />
            <mxPoint x="608" y="340" as="targetPoint" />
          </mxGeometry>
        </mxCell>
        <mxCell id="FDVOKYXHEH1saNnxTikK-2" value="" style="resizable=0;html=1;align=center;verticalAlign=top;labelBackgroundColor=none;" connectable="0" vertex="1" parent="FDVOKYXHEH1saNnxTikK-1">
          <mxGeometry relative="1" as="geometry" />
        </mxCell>
        <mxCell id="FDVOKYXHEH1saNnxTikK-3" value="" style="endArrow=block;html=1;rounded=0;align=center;verticalAlign=bottom;endFill=0;labelBackgroundColor=none;endSize=8;" edge="1" parent="1" source="E3rHRYDPcAafz-4ncIo_-28" target="E3rHRYDPcAafz-4ncIo_-10">
          <mxGeometry relative="1" as="geometry">
            <mxPoint x="180" y="560" as="sourcePoint" />
            <mxPoint x="340" y="560" as="targetPoint" />
          </mxGeometry>
        </mxCell>
        <mxCell id="FDVOKYXHEH1saNnxTikK-4" value="" style="resizable=0;html=1;align=center;verticalAlign=top;labelBackgroundColor=none;" connectable="0" vertex="1" parent="FDVOKYXHEH1saNnxTikK-3">
          <mxGeometry relative="1" as="geometry" />
        </mxCell>
        <mxCell id="FDVOKYXHEH1saNnxTikK-5" value="" style="endArrow=block;html=1;rounded=0;align=center;verticalAlign=bottom;endFill=0;labelBackgroundColor=none;endSize=8;" edge="1" parent="1" source="E3rHRYDPcAafz-4ncIo_-14" target="E3rHRYDPcAafz-4ncIo_-10">
          <mxGeometry relative="1" as="geometry">
            <mxPoint x="190" y="570" as="sourcePoint" />
            <mxPoint x="350" y="570" as="targetPoint" />
          </mxGeometry>
        </mxCell>
        <mxCell id="FDVOKYXHEH1saNnxTikK-6" value="" style="resizable=0;html=1;align=center;verticalAlign=top;labelBackgroundColor=none;" connectable="0" vertex="1" parent="FDVOKYXHEH1saNnxTikK-5">
          <mxGeometry relative="1" as="geometry" />
        </mxCell>
        <mxCell id="FDVOKYXHEH1saNnxTikK-7" value="" style="endArrow=block;html=1;rounded=0;align=center;verticalAlign=bottom;endFill=0;labelBackgroundColor=none;endSize=8;" edge="1" parent="1" source="E3rHRYDPcAafz-4ncIo_-11" target="E3rHRYDPcAafz-4ncIo_-10">
          <mxGeometry relative="1" as="geometry">
            <mxPoint x="200" y="580" as="sourcePoint" />
            <mxPoint x="360" y="580" as="targetPoint" />
          </mxGeometry>
        </mxCell>
        <mxCell id="FDVOKYXHEH1saNnxTikK-8" value="" style="resizable=0;html=1;align=center;verticalAlign=top;labelBackgroundColor=none;" connectable="0" vertex="1" parent="FDVOKYXHEH1saNnxTikK-7">
          <mxGeometry relative="1" as="geometry" />
        </mxCell>
        <mxCell id="FDVOKYXHEH1saNnxTikK-9" value="" style="endArrow=block;html=1;rounded=0;align=center;verticalAlign=bottom;endFill=0;labelBackgroundColor=none;endSize=8;" edge="1" parent="1" source="E3rHRYDPcAafz-4ncIo_-12" target="E3rHRYDPcAafz-4ncIo_-10">
          <mxGeometry relative="1" as="geometry">
            <mxPoint x="210" y="590" as="sourcePoint" />
            <mxPoint x="370" y="590" as="targetPoint" />
          </mxGeometry>
        </mxCell>
        <mxCell id="FDVOKYXHEH1saNnxTikK-10" value="" style="resizable=0;html=1;align=center;verticalAlign=top;labelBackgroundColor=none;" connectable="0" vertex="1" parent="FDVOKYXHEH1saNnxTikK-9">
          <mxGeometry relative="1" as="geometry" />
        </mxCell>
        <mxCell id="FDVOKYXHEH1saNnxTikK-11" value="" style="endArrow=block;html=1;rounded=0;align=center;verticalAlign=bottom;endFill=0;labelBackgroundColor=none;endSize=8;" edge="1" parent="1" source="E3rHRYDPcAafz-4ncIo_-13" target="E3rHRYDPcAafz-4ncIo_-10">
          <mxGeometry relative="1" as="geometry">
            <mxPoint x="220" y="600" as="sourcePoint" />
            <mxPoint x="380" y="600" as="targetPoint" />
          </mxGeometry>
        </mxCell>
        <mxCell id="FDVOKYXHEH1saNnxTikK-12" value="" style="resizable=0;html=1;align=center;verticalAlign=top;labelBackgroundColor=none;" connectable="0" vertex="1" parent="FDVOKYXHEH1saNnxTikK-11">
          <mxGeometry relative="1" as="geometry" />
        </mxCell>
        <mxCell id="FDVOKYXHEH1saNnxTikK-13" value="" style="endArrow=block;html=1;rounded=0;align=center;verticalAlign=bottom;endFill=0;labelBackgroundColor=none;endSize=8;" edge="1" parent="1" source="E3rHRYDPcAafz-4ncIo_-30" target="E3rHRYDPcAafz-4ncIo_-10">
          <mxGeometry relative="1" as="geometry">
            <mxPoint x="230" y="610" as="sourcePoint" />
            <mxPoint x="390" y="610" as="targetPoint" />
          </mxGeometry>
        </mxCell>
        <mxCell id="FDVOKYXHEH1saNnxTikK-14" value="" style="resizable=0;html=1;align=center;verticalAlign=top;labelBackgroundColor=none;" connectable="0" vertex="1" parent="FDVOKYXHEH1saNnxTikK-13">
          <mxGeometry relative="1" as="geometry" />
        </mxCell>
        <mxCell id="FDVOKYXHEH1saNnxTikK-15" value="" style="endArrow=block;html=1;rounded=0;align=center;verticalAlign=bottom;endFill=0;labelBackgroundColor=none;endSize=8;" edge="1" parent="1" source="E3rHRYDPcAafz-4ncIo_-24" target="E3rHRYDPcAafz-4ncIo_-20">
          <mxGeometry relative="1" as="geometry">
            <mxPoint x="240" y="620" as="sourcePoint" />
            <mxPoint x="400" y="620" as="targetPoint" />
          </mxGeometry>
        </mxCell>
        <mxCell id="FDVOKYXHEH1saNnxTikK-16" value="" style="resizable=0;html=1;align=center;verticalAlign=top;labelBackgroundColor=none;" connectable="0" vertex="1" parent="FDVOKYXHEH1saNnxTikK-15">
          <mxGeometry relative="1" as="geometry" />
        </mxCell>
        <mxCell id="5g9ds_OnDJcCFlqr4PqB-1" value="&amp;lt;&amp;lt;include&amp;gt;&amp;gt;" style="html=1;verticalAlign=bottom;labelBackgroundColor=none;endArrow=open;endFill=0;dashed=1;rounded=0;" edge="1" parent="1" source="E3rHRYDPcAafz-4ncIo_-11" target="2rmqdx88q6LqFFhBnuin-4">
          <mxGeometry x="-0.279" y="-1" width="160" relative="1" as="geometry">
            <mxPoint x="302" y="-54" as="sourcePoint" />
            <mxPoint x="278" y="16" as="targetPoint" />
            <mxPoint y="-1" as="offset" />
          </mxGeometry>
        </mxCell>
      </root>
    </mxGraphModel>
  </diagram>
  <diagram id="I3JV3B_jnNRyk98SkZBM" name="DCU-2-AUTH">
    <mxGraphModel dx="2794" dy="760" grid="0" gridSize="10" guides="1" tooltips="1" connect="1" arrows="1" fold="1" page="0" pageScale="1" pageWidth="827" pageHeight="1169" math="0" shadow="0">
      <root>
        <mxCell id="0" />
        <mxCell id="1" parent="0" />
        <mxCell id="6jNxSZJ4AbqkJqiQ951n-1" value="Administrateur&lt;br&gt;" style="shape=umlActor;verticalLabelPosition=bottom;verticalAlign=top;html=1;" parent="1" vertex="1">
          <mxGeometry x="-1515" y="463" width="30" height="60" as="geometry" />
        </mxCell>
        <mxCell id="BTpcJvbgPk7hBuJAMmAw-1" value="" style="endArrow=none;startArrow=none;endFill=0;startFill=0;endSize=8;html=1;verticalAlign=bottom;labelBackgroundColor=none;strokeWidth=1;rounded=0;" parent="1" source="6jNxSZJ4AbqkJqiQ951n-1" target="c0iR6h5REf0ouwAnAJXt-1" edge="1">
          <mxGeometry width="160" relative="1" as="geometry">
            <mxPoint x="-1430" y="460" as="sourcePoint" />
            <mxPoint x="-1270" y="460" as="targetPoint" />
            <Array as="points">
              <mxPoint x="-1460" y="440" />
            </Array>
          </mxGeometry>
        </mxCell>
        <mxCell id="BTpcJvbgPk7hBuJAMmAw-3" value="" style="endArrow=none;startArrow=none;endFill=0;startFill=0;endSize=8;html=1;verticalAlign=bottom;labelBackgroundColor=none;strokeWidth=1;rounded=0;" parent="1" source="6jNxSZJ4AbqkJqiQ951n-1" target="2WZdOUQ3pTaMAA4cTsPH-1" edge="1">
          <mxGeometry width="160" relative="1" as="geometry">
            <mxPoint x="-1540" y="485" as="sourcePoint" />
            <mxPoint x="-1369" y="427" as="targetPoint" />
            <Array as="points">
              <mxPoint x="-1250" y="470" />
            </Array>
          </mxGeometry>
        </mxCell>
        <mxCell id="jxmgiTVcG3DJ7_9vxgqo-1" value="" style="shape=umlFrame;whiteSpace=wrap;html=1;pointerEvents=0;recursiveResize=0;container=1;collapsible=0;width=160;" parent="1" vertex="1">
          <mxGeometry x="-1390" y="280" width="530" height="480" as="geometry" />
        </mxCell>
        <mxCell id="k5rJ1fCpyKyUTRLk0ZWw-1" value="&lt;font size=&quot;1&quot; style=&quot;&quot;&gt;&lt;b style=&quot;font-size: 12px;&quot;&gt;SE DECONNECTER&lt;/b&gt;&lt;/font&gt;" style="ellipse;whiteSpace=wrap;html=1;" parent="jxmgiTVcG3DJ7_9vxgqo-1" vertex="1">
          <mxGeometry x="180" y="105" width="120" height="50" as="geometry" />
        </mxCell>
        <mxCell id="WHs-wmnTHvjUafLBIY-6-1" value="&lt;font style=&quot;font-size: 12px;&quot;&gt;&lt;b&gt;CHANGER DE LANGUE&lt;/b&gt;&lt;/font&gt;" style="ellipse;whiteSpace=wrap;html=1;" parent="jxmgiTVcG3DJ7_9vxgqo-1" vertex="1">
          <mxGeometry x="130" y="295" width="120" height="50" as="geometry" />
        </mxCell>
        <mxCell id="2WZdOUQ3pTaMAA4cTsPH-1" value="&lt;font size=&quot;1&quot; style=&quot;&quot;&gt;&lt;b style=&quot;font-size: 12px;&quot;&gt;S&#39;AUTHENTIFIER&lt;/b&gt;&lt;/font&gt;" style="ellipse;whiteSpace=wrap;html=1;" parent="jxmgiTVcG3DJ7_9vxgqo-1" vertex="1">
          <mxGeometry x="380" y="195" width="120" height="45" as="geometry" />
        </mxCell>
        <mxCell id="WHs-wmnTHvjUafLBIY-6-2" value="&amp;lt;&amp;lt;include&amp;gt;&amp;gt;" style="html=1;verticalAlign=bottom;labelBackgroundColor=none;endArrow=open;endFill=0;dashed=1;rounded=0;" parent="jxmgiTVcG3DJ7_9vxgqo-1" source="WHs-wmnTHvjUafLBIY-6-1" target="2WZdOUQ3pTaMAA4cTsPH-1" edge="1">
          <mxGeometry width="160" relative="1" as="geometry">
            <mxPoint x="-220" y="130" as="sourcePoint" />
            <mxPoint x="-60" y="130" as="targetPoint" />
          </mxGeometry>
        </mxCell>
        <mxCell id="WHs-wmnTHvjUafLBIY-6-3" value="&amp;lt;&amp;lt;include&amp;gt;&amp;gt;" style="html=1;verticalAlign=bottom;labelBackgroundColor=none;endArrow=open;endFill=0;dashed=1;rounded=0;" parent="jxmgiTVcG3DJ7_9vxgqo-1" source="k5rJ1fCpyKyUTRLk0ZWw-1" target="2WZdOUQ3pTaMAA4cTsPH-1" edge="1">
          <mxGeometry width="160" relative="1" as="geometry">
            <mxPoint x="210" y="220" as="sourcePoint" />
            <mxPoint x="140" y="224" as="targetPoint" />
          </mxGeometry>
        </mxCell>
        <mxCell id="c0iR6h5REf0ouwAnAJXt-1" value="&lt;font size=&quot;1&quot; style=&quot;&quot;&gt;&lt;b style=&quot;font-size: 12px;&quot;&gt;RÉINITIALISER MOT DE PASSE&amp;nbsp;&lt;/b&gt;&lt;/font&gt;" style="ellipse;whiteSpace=wrap;html=1;" parent="jxmgiTVcG3DJ7_9vxgqo-1" vertex="1">
          <mxGeometry x="190" y="15" width="125" height="60" as="geometry" />
        </mxCell>
        <mxCell id="EV8kkI1UcFj5o7d4Ko5v-1" value="&lt;b&gt;CONSULTER DASHBOARD&lt;/b&gt;" style="ellipse;whiteSpace=wrap;html=1;" parent="jxmgiTVcG3DJ7_9vxgqo-1" vertex="1">
          <mxGeometry x="120" y="215" width="120" height="50" as="geometry" />
        </mxCell>
        <mxCell id="e9Y5EGhi-1Ydw6DEz16I-1" value="&lt;font style=&quot;font-size: 12px;&quot;&gt;&lt;b&gt;CONSULTER NOTIFICATION&lt;/b&gt;&lt;/font&gt;" style="ellipse;whiteSpace=wrap;html=1;" parent="jxmgiTVcG3DJ7_9vxgqo-1" vertex="1">
          <mxGeometry x="140" y="375" width="120" height="50" as="geometry" />
        </mxCell>
        <mxCell id="e9Y5EGhi-1Ydw6DEz16I-2" value="&amp;lt;&amp;lt;include&amp;gt;&amp;gt;" style="html=1;verticalAlign=bottom;labelBackgroundColor=none;endArrow=open;endFill=0;dashed=1;rounded=0;" parent="jxmgiTVcG3DJ7_9vxgqo-1" source="e9Y5EGhi-1Ydw6DEz16I-1" target="2WZdOUQ3pTaMAA4cTsPH-1" edge="1">
          <mxGeometry width="160" relative="1" as="geometry">
            <mxPoint x="257" y="186" as="sourcePoint" />
            <mxPoint x="163" y="244" as="targetPoint" />
          </mxGeometry>
        </mxCell>
        <mxCell id="EV8kkI1UcFj5o7d4Ko5v-3" value="&amp;lt;&amp;lt;include&amp;gt;&amp;gt;" style="html=1;verticalAlign=bottom;labelBackgroundColor=none;endArrow=open;endFill=0;dashed=1;rounded=0;" parent="jxmgiTVcG3DJ7_9vxgqo-1" source="EV8kkI1UcFj5o7d4Ko5v-1" target="2WZdOUQ3pTaMAA4cTsPH-1" edge="1">
          <mxGeometry width="160" relative="1" as="geometry">
            <mxPoint x="240" y="311" as="sourcePoint" />
            <mxPoint x="382" y="245" as="targetPoint" />
          </mxGeometry>
        </mxCell>
        <mxCell id="e9Y5EGhi-1Ydw6DEz16I-3" value="" style="endArrow=none;startArrow=none;endFill=0;startFill=0;endSize=8;html=1;verticalAlign=bottom;labelBackgroundColor=none;strokeWidth=1;rounded=0;" parent="1" source="6jNxSZJ4AbqkJqiQ951n-1" target="k5rJ1fCpyKyUTRLk0ZWw-1" edge="1">
          <mxGeometry width="160" relative="1" as="geometry">
            <mxPoint x="-1540" y="499" as="sourcePoint" />
            <mxPoint x="-1365" y="600" as="targetPoint" />
            <Array as="points" />
          </mxGeometry>
        </mxCell>
        <mxCell id="e9Y5EGhi-1Ydw6DEz16I-4" value="" style="endArrow=none;startArrow=none;endFill=0;startFill=0;endSize=8;html=1;verticalAlign=bottom;labelBackgroundColor=none;strokeWidth=1;rounded=0;" parent="1" source="6jNxSZJ4AbqkJqiQ951n-1" target="WHs-wmnTHvjUafLBIY-6-1" edge="1">
          <mxGeometry width="160" relative="1" as="geometry">
            <mxPoint x="-1540" y="488" as="sourcePoint" />
            <mxPoint x="-1206" y="434" as="targetPoint" />
            <Array as="points" />
          </mxGeometry>
        </mxCell>
        <mxCell id="e9Y5EGhi-1Ydw6DEz16I-5" value="" style="endArrow=none;startArrow=none;endFill=0;startFill=0;endSize=8;html=1;verticalAlign=bottom;labelBackgroundColor=none;strokeWidth=1;rounded=0;" parent="1" source="6jNxSZJ4AbqkJqiQ951n-1" target="e9Y5EGhi-1Ydw6DEz16I-1" edge="1">
          <mxGeometry width="160" relative="1" as="geometry">
            <mxPoint x="-1530" y="498" as="sourcePoint" />
            <mxPoint x="-1196" y="444" as="targetPoint" />
            <Array as="points" />
          </mxGeometry>
        </mxCell>
        <mxCell id="EV8kkI1UcFj5o7d4Ko5v-2" value="" style="endArrow=none;startArrow=none;endFill=0;startFill=0;endSize=8;html=1;verticalAlign=bottom;labelBackgroundColor=none;strokeWidth=1;rounded=0;" parent="1" source="6jNxSZJ4AbqkJqiQ951n-1" target="EV8kkI1UcFj5o7d4Ko5v-1" edge="1">
          <mxGeometry width="160" relative="1" as="geometry">
            <mxPoint x="-1540" y="490" as="sourcePoint" />
            <mxPoint x="-1246" y="599" as="targetPoint" />
            <Array as="points" />
          </mxGeometry>
        </mxCell>
      </root>
    </mxGraphModel>
  </diagram>
  <diagram id="13QDH9hBHr3h8M7g6dTB" name="DCU-3-BOUTIQUE">
    <mxGraphModel dx="1594" dy="1160" grid="0" gridSize="10" guides="1" tooltips="1" connect="1" arrows="1" fold="1" page="0" pageScale="1" pageWidth="827" pageHeight="1169" math="0" shadow="0">
      <root>
        <mxCell id="0" />
        <mxCell id="1" parent="0" />
        <mxCell id="fh-KqPgcUh-lmvEO4Y0l-1" value="Administrateur&lt;br&gt;" style="shape=umlActor;verticalLabelPosition=bottom;verticalAlign=top;html=1;" parent="1" vertex="1">
          <mxGeometry x="-130" y="320" width="30" height="60" as="geometry" />
        </mxCell>
        <mxCell id="fh-KqPgcUh-lmvEO4Y0l-2" value="&lt;font style=&quot;font-size: 10px;&quot;&gt;CONSULTER LISTE DE COMMANDE&lt;/font&gt;" style="ellipse;whiteSpace=wrap;html=1;" parent="1" vertex="1">
          <mxGeometry x="470" y="240" width="120" height="50" as="geometry" />
        </mxCell>
        <mxCell id="fh-KqPgcUh-lmvEO4Y0l-3" value="&amp;lt;&amp;lt;include&amp;gt;&amp;gt;" style="html=1;verticalAlign=bottom;labelBackgroundColor=none;endArrow=open;endFill=0;dashed=1;rounded=0;" parent="1" source="fh-KqPgcUh-lmvEO4Y0l-4" target="fh-KqPgcUh-lmvEO4Y0l-2" edge="1">
          <mxGeometry x="-0.279" y="-1" width="160" relative="1" as="geometry">
            <mxPoint x="310" y="240" as="sourcePoint" />
            <mxPoint x="470" y="240" as="targetPoint" />
            <mxPoint y="-1" as="offset" />
          </mxGeometry>
        </mxCell>
        <mxCell id="fh-KqPgcUh-lmvEO4Y0l-4" value="&lt;b&gt;GÉRER COMMANDE&lt;/b&gt;" style="ellipse;whiteSpace=wrap;html=1;" parent="1" vertex="1">
          <mxGeometry x="300" y="150" width="120" height="50" as="geometry" />
        </mxCell>
        <mxCell id="fh-KqPgcUh-lmvEO4Y0l-6" value="&lt;font style=&quot;font-size: 10px;&quot;&gt;GÉRER ÉTAPE DE LIVRAISON&lt;/font&gt;" style="ellipse;whiteSpace=wrap;html=1;" parent="1" vertex="1">
          <mxGeometry x="380" y="40" width="120" height="50" as="geometry" />
        </mxCell>
        <mxCell id="fh-KqPgcUh-lmvEO4Y0l-8" value="&lt;font style=&quot;font-size: 10px;&quot;&gt;CONSULTER DÉTAIL DE COMMANDE&lt;/font&gt;" style="ellipse;whiteSpace=wrap;html=1;" parent="1" vertex="1">
          <mxGeometry x="130" y="120" width="120" height="50" as="geometry" />
        </mxCell>
        <mxCell id="fh-KqPgcUh-lmvEO4Y0l-13" value="&lt;font style=&quot;font-size: 12px;&quot;&gt;&lt;b&gt;GÉRER PRIX LIVRAISON&lt;/b&gt;&lt;/font&gt;" style="ellipse;whiteSpace=wrap;html=1;" parent="1" vertex="1">
          <mxGeometry x="220" y="670" width="120" height="50" as="geometry" />
        </mxCell>
        <mxCell id="fh-KqPgcUh-lmvEO4Y0l-14" value="&lt;font style=&quot;font-size: 10px;&quot;&gt;CRÉER PRIX DE LIVRAISON&lt;/font&gt;" style="ellipse;whiteSpace=wrap;html=1;" parent="1" vertex="1">
          <mxGeometry x="440" y="700" width="120" height="50" as="geometry" />
        </mxCell>
        <mxCell id="fh-KqPgcUh-lmvEO4Y0l-15" value="&lt;font style=&quot;font-size: 10px;&quot;&gt;ASSIGNER PRIX DE LIVRAISON&lt;/font&gt;" style="ellipse;whiteSpace=wrap;html=1;" parent="1" vertex="1">
          <mxGeometry x="550" y="650" width="120" height="50" as="geometry" />
        </mxCell>
        <mxCell id="fh-KqPgcUh-lmvEO4Y0l-20" value="&lt;font style=&quot;font-size: 10px;&quot;&gt;VALIDER COMMANDE&lt;/font&gt;" style="ellipse;whiteSpace=wrap;html=1;" parent="1" vertex="1">
          <mxGeometry x="210" y="280" width="120" height="50" as="geometry" />
        </mxCell>
        <mxCell id="fh-KqPgcUh-lmvEO4Y0l-22" value="&lt;font style=&quot;font-size: 10px;&quot;&gt;ANNULER COMMANDE&lt;/font&gt;" style="ellipse;whiteSpace=wrap;html=1;" parent="1" vertex="1">
          <mxGeometry x="510" y="80" width="120" height="50" as="geometry" />
        </mxCell>
        <mxCell id="fh-KqPgcUh-lmvEO4Y0l-24" value="" style="endArrow=none;startArrow=none;endFill=0;startFill=0;endSize=8;html=1;verticalAlign=bottom;labelBackgroundColor=none;strokeWidth=1;rounded=0;" parent="1" source="fh-KqPgcUh-lmvEO4Y0l-1" target="fh-KqPgcUh-lmvEO4Y0l-4" edge="1">
          <mxGeometry width="160" relative="1" as="geometry">
            <mxPoint x="40" y="305" as="sourcePoint" />
            <mxPoint x="74.13105654844094" y="361.11611526676415" as="targetPoint" />
          </mxGeometry>
        </mxCell>
        <mxCell id="fh-KqPgcUh-lmvEO4Y0l-25" value="&amp;lt;&amp;lt;include&amp;gt;&amp;gt;" style="html=1;verticalAlign=bottom;labelBackgroundColor=none;endArrow=open;endFill=0;dashed=1;rounded=0;" parent="1" source="fh-KqPgcUh-lmvEO4Y0l-4" target="fh-KqPgcUh-lmvEO4Y0l-26" edge="1">
          <mxGeometry x="-0.279" y="-1" width="160" relative="1" as="geometry">
            <mxPoint x="120" y="320" as="sourcePoint" />
            <mxPoint x="260" y="308" as="targetPoint" />
            <mxPoint y="-1" as="offset" />
          </mxGeometry>
        </mxCell>
        <mxCell id="fh-KqPgcUh-lmvEO4Y0l-26" value="&lt;font size=&quot;1&quot; style=&quot;&quot;&gt;&lt;b style=&quot;font-size: 12px;&quot;&gt;S&#39;AUTHENTIFIER&lt;/b&gt;&lt;/font&gt;" style="ellipse;whiteSpace=wrap;html=1;" parent="1" vertex="1">
          <mxGeometry x="720" y="230" width="120" height="50" as="geometry" />
        </mxCell>
        <mxCell id="fh-KqPgcUh-lmvEO4Y0l-27" value="&lt;font style=&quot;font-size: 10px;&quot;&gt;RÉGLER COMMANDE&lt;/font&gt;" style="ellipse;whiteSpace=wrap;html=1;" parent="1" vertex="1">
          <mxGeometry x="240" y="30" width="120" height="50" as="geometry" />
        </mxCell>
        <mxCell id="fh-KqPgcUh-lmvEO4Y0l-29" value="&lt;font style=&quot;font-size: 10px;&quot;&gt;CONSULTER LISTE DES PRIX DE LIVRAISON&lt;/font&gt;" style="ellipse;whiteSpace=wrap;html=1;" parent="1" vertex="1">
          <mxGeometry x="100" y="770" width="120" height="50" as="geometry" />
        </mxCell>
        <mxCell id="fh-KqPgcUh-lmvEO4Y0l-30" value="&amp;lt;&amp;lt;include&amp;gt;&amp;gt;" style="html=1;verticalAlign=bottom;labelBackgroundColor=none;endArrow=open;endFill=0;dashed=1;rounded=0;" parent="1" source="fh-KqPgcUh-lmvEO4Y0l-13" target="fh-KqPgcUh-lmvEO4Y0l-29" edge="1">
          <mxGeometry x="-0.279" y="-1" width="160" relative="1" as="geometry">
            <mxPoint x="322" y="201" as="sourcePoint" />
            <mxPoint x="288" y="159" as="targetPoint" />
            <mxPoint y="-1" as="offset" />
          </mxGeometry>
        </mxCell>
        <mxCell id="fh-KqPgcUh-lmvEO4Y0l-33" value="&lt;font style=&quot;font-size: 10px; font-weight: normal;&quot;&gt;MODIFIER ÉTAPE DE LIVRAISON&lt;/font&gt;" style="ellipse;whiteSpace=wrap;html=1;fontStyle=1;" parent="1" vertex="1">
          <mxGeometry x="530" y="-20" width="120" height="50" as="geometry" />
        </mxCell>
        <mxCell id="fh-KqPgcUh-lmvEO4Y0l-36" value="&lt;font style=&quot;font-size: 10px; font-weight: normal;&quot;&gt;CONSULTER ÉTAPES DE LIVRAISON&lt;/font&gt;" style="ellipse;whiteSpace=wrap;html=1;fontStyle=1;" parent="1" vertex="1">
          <mxGeometry x="354" y="-90" width="120" height="50" as="geometry" />
        </mxCell>
        <mxCell id="fh-KqPgcUh-lmvEO4Y0l-43" value="" style="endArrow=none;startArrow=none;endFill=0;startFill=0;endSize=8;html=1;verticalAlign=bottom;labelBackgroundColor=none;strokeWidth=1;rounded=0;exitX=0.667;exitY=0.667;exitDx=0;exitDy=0;exitPerimeter=0;" parent="1" source="fh-KqPgcUh-lmvEO4Y0l-1" target="fh-KqPgcUh-lmvEO4Y0l-13" edge="1">
          <mxGeometry width="160" relative="1" as="geometry">
            <mxPoint x="-30" y="423" as="sourcePoint" />
            <mxPoint x="311" y="254" as="targetPoint" />
            <Array as="points">
              <mxPoint x="40" y="600" />
            </Array>
          </mxGeometry>
        </mxCell>
        <mxCell id="fh-KqPgcUh-lmvEO4Y0l-45" value="&amp;lt;&amp;lt;include&amp;gt;&amp;gt;" style="html=1;verticalAlign=bottom;labelBackgroundColor=none;endArrow=open;endFill=0;dashed=1;rounded=0;" parent="1" source="4E5Bp8gIRT2rFJFWU-uB-7" target="fh-KqPgcUh-lmvEO4Y0l-26" edge="1">
          <mxGeometry x="-0.279" y="-1" width="160" relative="1" as="geometry">
            <mxPoint x="407" y="243" as="sourcePoint" />
            <mxPoint x="883" y="307" as="targetPoint" />
            <mxPoint y="-1" as="offset" />
            <Array as="points" />
          </mxGeometry>
        </mxCell>
        <mxCell id="fh-KqPgcUh-lmvEO4Y0l-46" value="&lt;font style=&quot;font-size: 10px;&quot;&gt;MODE DE PAIEMENT PAR CASH&lt;/font&gt;" style="ellipse;whiteSpace=wrap;html=1;" parent="1" vertex="1">
          <mxGeometry x="140" y="-60" width="120" height="50" as="geometry" />
        </mxCell>
        <mxCell id="fh-KqPgcUh-lmvEO4Y0l-47" value="&amp;lt;&amp;lt;include&amp;gt;&amp;gt;" style="html=1;verticalAlign=bottom;labelBackgroundColor=none;endArrow=open;endFill=0;dashed=1;rounded=0;" parent="1" source="fh-KqPgcUh-lmvEO4Y0l-27" target="fh-KqPgcUh-lmvEO4Y0l-46" edge="1">
          <mxGeometry x="-0.279" y="-1" width="160" relative="1" as="geometry">
            <mxPoint x="381" y="229" as="sourcePoint" />
            <mxPoint x="423" y="291" as="targetPoint" />
            <mxPoint y="-1" as="offset" />
          </mxGeometry>
        </mxCell>
        <mxCell id="fh-KqPgcUh-lmvEO4Y0l-48" value="&amp;lt;&amp;lt;include&amp;gt;&amp;gt;" style="html=1;verticalAlign=bottom;labelBackgroundColor=none;endArrow=open;endFill=0;dashed=1;rounded=0;" parent="1" source="fh-KqPgcUh-lmvEO4Y0l-6" target="fh-KqPgcUh-lmvEO4Y0l-36" edge="1">
          <mxGeometry x="-0.279" y="-1" width="160" relative="1" as="geometry">
            <mxPoint x="285" y="42" as="sourcePoint" />
            <mxPoint x="184" y="-52" as="targetPoint" />
            <mxPoint y="-1" as="offset" />
          </mxGeometry>
        </mxCell>
        <mxCell id="fh-KqPgcUh-lmvEO4Y0l-50" value="&lt;font style=&quot;font-size: 10px;&quot;&gt;EXPORTER LISTE DES COMMANDE&lt;/font&gt;" style="ellipse;whiteSpace=wrap;html=1;" parent="1" vertex="1">
          <mxGeometry x="340" y="260" width="120" height="50" as="geometry" />
        </mxCell>
        <mxCell id="fh-KqPgcUh-lmvEO4Y0l-52" value="&lt;font style=&quot;font-size: 10px;&quot;&gt;CONSULTER LISTE DES PRIX DES ZONES&lt;/font&gt;" style="ellipse;whiteSpace=wrap;html=1;" parent="1" vertex="1">
          <mxGeometry x="330" y="780" width="120" height="50" as="geometry" />
        </mxCell>
        <mxCell id="fh-KqPgcUh-lmvEO4Y0l-53" value="&amp;lt;&amp;lt;include&amp;gt;&amp;gt;" style="html=1;verticalAlign=bottom;labelBackgroundColor=none;endArrow=open;endFill=0;dashed=1;rounded=0;" parent="1" source="fh-KqPgcUh-lmvEO4Y0l-13" target="fh-KqPgcUh-lmvEO4Y0l-52" edge="1">
          <mxGeometry x="-0.279" y="-1" width="160" relative="1" as="geometry">
            <mxPoint x="320" y="519" as="sourcePoint" />
            <mxPoint x="260" y="591" as="targetPoint" />
            <mxPoint y="-1" as="offset" />
          </mxGeometry>
        </mxCell>
        <mxCell id="4E5Bp8gIRT2rFJFWU-uB-1" value="&lt;b&gt;CONSULTER LA LISTE DES TRANSACTIONS&lt;/b&gt;" style="ellipse;whiteSpace=wrap;html=1;" parent="1" vertex="1">
          <mxGeometry x="170" y="350" width="140" height="60" as="geometry" />
        </mxCell>
        <mxCell id="4E5Bp8gIRT2rFJFWU-uB-2" value="" style="endArrow=none;startArrow=none;endFill=0;startFill=0;endSize=8;html=1;verticalAlign=bottom;labelBackgroundColor=none;strokeWidth=1;rounded=0;" parent="1" source="fh-KqPgcUh-lmvEO4Y0l-1" target="4E5Bp8gIRT2rFJFWU-uB-1" edge="1">
          <mxGeometry width="160" relative="1" as="geometry">
            <mxPoint x="-40" y="412" as="sourcePoint" />
            <mxPoint x="334" y="205" as="targetPoint" />
          </mxGeometry>
        </mxCell>
        <mxCell id="4E5Bp8gIRT2rFJFWU-uB-3" value="&amp;lt;&amp;lt;include&amp;gt;&amp;gt;" style="html=1;verticalAlign=bottom;labelBackgroundColor=none;endArrow=open;endFill=0;dashed=1;rounded=0;" parent="1" source="4E5Bp8gIRT2rFJFWU-uB-1" target="fh-KqPgcUh-lmvEO4Y0l-26" edge="1">
          <mxGeometry x="-0.279" y="-1" width="160" relative="1" as="geometry">
            <mxPoint x="436" y="465" as="sourcePoint" />
            <mxPoint x="754" y="285" as="targetPoint" />
            <mxPoint y="-1" as="offset" />
            <Array as="points">
              <mxPoint x="530" y="340" />
            </Array>
          </mxGeometry>
        </mxCell>
        <mxCell id="4E5Bp8gIRT2rFJFWU-uB-4" value="&lt;b&gt;EXPORTER LISTE DES TRANSACTIONS&lt;/b&gt;" style="ellipse;whiteSpace=wrap;html=1;" parent="1" vertex="1">
          <mxGeometry x="200" y="420" width="140" height="60" as="geometry" />
        </mxCell>
        <mxCell id="4E5Bp8gIRT2rFJFWU-uB-5" value="" style="endArrow=none;startArrow=none;endFill=0;startFill=0;endSize=8;html=1;verticalAlign=bottom;labelBackgroundColor=none;strokeWidth=1;rounded=0;" parent="1" source="fh-KqPgcUh-lmvEO4Y0l-1" target="4E5Bp8gIRT2rFJFWU-uB-4" edge="1">
          <mxGeometry width="160" relative="1" as="geometry">
            <mxPoint x="-40" y="419" as="sourcePoint" />
            <mxPoint x="182" y="397" as="targetPoint" />
          </mxGeometry>
        </mxCell>
        <mxCell id="4E5Bp8gIRT2rFJFWU-uB-6" value="&amp;lt;&amp;lt;include&amp;gt;&amp;gt;" style="html=1;verticalAlign=bottom;labelBackgroundColor=none;endArrow=open;endFill=0;dashed=1;rounded=0;" parent="1" source="4E5Bp8gIRT2rFJFWU-uB-4" target="fh-KqPgcUh-lmvEO4Y0l-26" edge="1">
          <mxGeometry x="-0.279" y="-1" width="160" relative="1" as="geometry">
            <mxPoint x="317" y="381" as="sourcePoint" />
            <mxPoint x="744" y="281" as="targetPoint" />
            <mxPoint y="-1" as="offset" />
            <Array as="points">
              <mxPoint x="540" y="350" />
            </Array>
          </mxGeometry>
        </mxCell>
        <mxCell id="4E5Bp8gIRT2rFJFWU-uB-7" value="&lt;font style=&quot;font-size: 12px;&quot;&gt;&lt;b&gt;GÉRER BANNIÈRE&lt;/b&gt;&lt;/font&gt;" style="ellipse;whiteSpace=wrap;html=1;" parent="1" vertex="1">
          <mxGeometry x="230" y="500" width="120" height="50" as="geometry" />
        </mxCell>
        <mxCell id="4E5Bp8gIRT2rFJFWU-uB-8" value="&lt;font style=&quot;font-size: 10px;&quot;&gt;CRÉER BANNIÈRE&lt;br&gt;&lt;/font&gt;" style="ellipse;whiteSpace=wrap;html=1;" parent="1" vertex="1">
          <mxGeometry x="430" y="460" width="120" height="50" as="geometry" />
        </mxCell>
        <mxCell id="4E5Bp8gIRT2rFJFWU-uB-9" value="&lt;font style=&quot;font-size: 10px;&quot;&gt;SUPPRIMER BANNIÈRE&lt;/font&gt;" style="ellipse;whiteSpace=wrap;html=1;" parent="1" vertex="1">
          <mxGeometry x="380" y="535" width="120" height="50" as="geometry" />
        </mxCell>
        <mxCell id="4E5Bp8gIRT2rFJFWU-uB-16" value="" style="endArrow=none;startArrow=none;endFill=0;startFill=0;endSize=8;html=1;verticalAlign=bottom;labelBackgroundColor=none;strokeWidth=1;rounded=0;" parent="1" source="fh-KqPgcUh-lmvEO4Y0l-1" target="4E5Bp8gIRT2rFJFWU-uB-7" edge="1">
          <mxGeometry width="160" relative="1" as="geometry">
            <mxPoint x="-50" y="430" as="sourcePoint" />
            <mxPoint x="350" y="535" as="targetPoint" />
            <Array as="points">
              <mxPoint x="100" y="520" />
            </Array>
          </mxGeometry>
        </mxCell>
        <mxCell id="4E5Bp8gIRT2rFJFWU-uB-14" value="&lt;font style=&quot;font-size: 10px;&quot;&gt;MODIFIER POSITION D&#39;AFFICHAGE BANNIÈRE&lt;/font&gt;" style="ellipse;whiteSpace=wrap;html=1;" parent="1" vertex="1">
          <mxGeometry x="130" y="565" width="130" height="60" as="geometry" />
        </mxCell>
        <mxCell id="4E5Bp8gIRT2rFJFWU-uB-19" value="&amp;lt;&amp;lt;include&amp;gt;&amp;gt;" style="html=1;verticalAlign=bottom;labelBackgroundColor=none;endArrow=open;endFill=0;dashed=1;rounded=0;" parent="1" source="fh-KqPgcUh-lmvEO4Y0l-13" target="fh-KqPgcUh-lmvEO4Y0l-26" edge="1">
          <mxGeometry x="-0.279" y="-1" width="160" relative="1" as="geometry">
            <mxPoint x="336" y="515" as="sourcePoint" />
            <mxPoint x="754" y="285" as="targetPoint" />
            <mxPoint y="-1" as="offset" />
            <Array as="points">
              <mxPoint x="610" y="550" />
            </Array>
          </mxGeometry>
        </mxCell>
        <mxCell id="v4tC5tg_MpDqmd6Uyio_-2" value="Gestion de la boutique" style="shape=umlFrame;whiteSpace=wrap;html=1;pointerEvents=0;recursiveResize=0;container=1;collapsible=0;width=160;" parent="1" vertex="1">
          <mxGeometry x="60" y="-140" width="800" height="990" as="geometry" />
        </mxCell>
        <mxCell id="fh-KqPgcUh-lmvEO4Y0l-16" value="&lt;font style=&quot;font-size: 10px;&quot;&gt;SUPPRIMER PRIX DE LIVRAISON&lt;/font&gt;" style="ellipse;whiteSpace=wrap;html=1;" parent="v4tC5tg_MpDqmd6Uyio_-2" vertex="1">
          <mxGeometry x="470" y="725" width="120" height="50" as="geometry" />
        </mxCell>
        <mxCell id="mnDvQ4BsTiSTKR6-_-a6-3" value="" style="endArrow=block;html=1;rounded=0;align=center;verticalAlign=bottom;endFill=0;labelBackgroundColor=none;endSize=8;" edge="1" parent="1" source="fh-KqPgcUh-lmvEO4Y0l-50" target="fh-KqPgcUh-lmvEO4Y0l-4">
          <mxGeometry relative="1" as="geometry">
            <mxPoint x="180" y="560" as="sourcePoint" />
            <mxPoint x="340" y="560" as="targetPoint" />
          </mxGeometry>
        </mxCell>
        <mxCell id="mnDvQ4BsTiSTKR6-_-a6-4" value="" style="resizable=0;html=1;align=center;verticalAlign=top;labelBackgroundColor=none;" connectable="0" vertex="1" parent="mnDvQ4BsTiSTKR6-_-a6-3">
          <mxGeometry relative="1" as="geometry" />
        </mxCell>
        <mxCell id="mnDvQ4BsTiSTKR6-_-a6-5" value="" style="endArrow=block;html=1;rounded=0;align=center;verticalAlign=bottom;endFill=0;labelBackgroundColor=none;endSize=8;" edge="1" parent="1" source="fh-KqPgcUh-lmvEO4Y0l-8" target="fh-KqPgcUh-lmvEO4Y0l-4">
          <mxGeometry relative="1" as="geometry">
            <mxPoint x="190" y="570" as="sourcePoint" />
            <mxPoint x="350" y="570" as="targetPoint" />
          </mxGeometry>
        </mxCell>
        <mxCell id="mnDvQ4BsTiSTKR6-_-a6-6" value="" style="resizable=0;html=1;align=center;verticalAlign=top;labelBackgroundColor=none;" connectable="0" vertex="1" parent="mnDvQ4BsTiSTKR6-_-a6-5">
          <mxGeometry relative="1" as="geometry" />
        </mxCell>
        <mxCell id="mnDvQ4BsTiSTKR6-_-a6-7" value="" style="endArrow=block;html=1;rounded=0;align=center;verticalAlign=bottom;endFill=0;labelBackgroundColor=none;endSize=8;" edge="1" parent="1" source="fh-KqPgcUh-lmvEO4Y0l-27" target="fh-KqPgcUh-lmvEO4Y0l-4">
          <mxGeometry relative="1" as="geometry">
            <mxPoint x="200" y="580" as="sourcePoint" />
            <mxPoint x="360" y="580" as="targetPoint" />
          </mxGeometry>
        </mxCell>
        <mxCell id="mnDvQ4BsTiSTKR6-_-a6-8" value="" style="resizable=0;html=1;align=center;verticalAlign=top;labelBackgroundColor=none;" connectable="0" vertex="1" parent="mnDvQ4BsTiSTKR6-_-a6-7">
          <mxGeometry relative="1" as="geometry" />
        </mxCell>
        <mxCell id="mnDvQ4BsTiSTKR6-_-a6-9" value="" style="endArrow=block;html=1;rounded=0;align=center;verticalAlign=bottom;endFill=0;labelBackgroundColor=none;endSize=8;" edge="1" parent="1" source="fh-KqPgcUh-lmvEO4Y0l-6" target="fh-KqPgcUh-lmvEO4Y0l-4">
          <mxGeometry relative="1" as="geometry">
            <mxPoint x="210" y="590" as="sourcePoint" />
            <mxPoint x="370" y="590" as="targetPoint" />
          </mxGeometry>
        </mxCell>
        <mxCell id="mnDvQ4BsTiSTKR6-_-a6-10" value="" style="resizable=0;html=1;align=center;verticalAlign=top;labelBackgroundColor=none;" connectable="0" vertex="1" parent="mnDvQ4BsTiSTKR6-_-a6-9">
          <mxGeometry relative="1" as="geometry" />
        </mxCell>
        <mxCell id="mnDvQ4BsTiSTKR6-_-a6-11" value="" style="endArrow=block;html=1;rounded=0;align=center;verticalAlign=bottom;endFill=0;labelBackgroundColor=none;endSize=8;" edge="1" parent="1" source="fh-KqPgcUh-lmvEO4Y0l-22" target="fh-KqPgcUh-lmvEO4Y0l-4">
          <mxGeometry relative="1" as="geometry">
            <mxPoint x="220" y="600" as="sourcePoint" />
            <mxPoint x="380" y="600" as="targetPoint" />
          </mxGeometry>
        </mxCell>
        <mxCell id="mnDvQ4BsTiSTKR6-_-a6-12" value="" style="resizable=0;html=1;align=center;verticalAlign=top;labelBackgroundColor=none;" connectable="0" vertex="1" parent="mnDvQ4BsTiSTKR6-_-a6-11">
          <mxGeometry relative="1" as="geometry" />
        </mxCell>
        <mxCell id="mnDvQ4BsTiSTKR6-_-a6-1" value="" style="endArrow=block;html=1;rounded=0;align=center;verticalAlign=bottom;endFill=0;labelBackgroundColor=none;endSize=8;" edge="1" parent="1" source="fh-KqPgcUh-lmvEO4Y0l-20" target="fh-KqPgcUh-lmvEO4Y0l-4">
          <mxGeometry relative="1" as="geometry">
            <mxPoint x="568" y="419" as="sourcePoint" />
            <mxPoint x="728" y="419" as="targetPoint" />
          </mxGeometry>
        </mxCell>
        <mxCell id="mnDvQ4BsTiSTKR6-_-a6-2" value="" style="resizable=0;html=1;align=center;verticalAlign=top;labelBackgroundColor=none;" connectable="0" vertex="1" parent="mnDvQ4BsTiSTKR6-_-a6-1">
          <mxGeometry relative="1" as="geometry" />
        </mxCell>
        <mxCell id="mnDvQ4BsTiSTKR6-_-a6-13" value="" style="endArrow=block;html=1;rounded=0;align=center;verticalAlign=bottom;endFill=0;labelBackgroundColor=none;endSize=8;" edge="1" parent="1" source="fh-KqPgcUh-lmvEO4Y0l-33" target="fh-KqPgcUh-lmvEO4Y0l-6">
          <mxGeometry relative="1" as="geometry">
            <mxPoint x="230" y="610" as="sourcePoint" />
            <mxPoint x="390" y="610" as="targetPoint" />
          </mxGeometry>
        </mxCell>
        <mxCell id="mnDvQ4BsTiSTKR6-_-a6-14" value="" style="resizable=0;html=1;align=center;verticalAlign=top;labelBackgroundColor=none;" connectable="0" vertex="1" parent="mnDvQ4BsTiSTKR6-_-a6-13">
          <mxGeometry relative="1" as="geometry" />
        </mxCell>
        <mxCell id="mnDvQ4BsTiSTKR6-_-a6-15" value="" style="endArrow=block;html=1;rounded=0;align=center;verticalAlign=bottom;endFill=0;labelBackgroundColor=none;endSize=8;" edge="1" parent="1" source="4E5Bp8gIRT2rFJFWU-uB-14" target="4E5Bp8gIRT2rFJFWU-uB-7">
          <mxGeometry relative="1" as="geometry">
            <mxPoint x="240" y="620" as="sourcePoint" />
            <mxPoint x="400" y="620" as="targetPoint" />
          </mxGeometry>
        </mxCell>
        <mxCell id="mnDvQ4BsTiSTKR6-_-a6-16" value="" style="resizable=0;html=1;align=center;verticalAlign=top;labelBackgroundColor=none;" connectable="0" vertex="1" parent="mnDvQ4BsTiSTKR6-_-a6-15">
          <mxGeometry relative="1" as="geometry" />
        </mxCell>
        <mxCell id="mnDvQ4BsTiSTKR6-_-a6-17" value="" style="endArrow=block;html=1;rounded=0;align=center;verticalAlign=bottom;endFill=0;labelBackgroundColor=none;endSize=8;" edge="1" parent="1" source="4E5Bp8gIRT2rFJFWU-uB-9" target="4E5Bp8gIRT2rFJFWU-uB-7">
          <mxGeometry relative="1" as="geometry">
            <mxPoint x="250" y="630" as="sourcePoint" />
            <mxPoint x="410" y="630" as="targetPoint" />
          </mxGeometry>
        </mxCell>
        <mxCell id="mnDvQ4BsTiSTKR6-_-a6-18" value="" style="resizable=0;html=1;align=center;verticalAlign=top;labelBackgroundColor=none;" connectable="0" vertex="1" parent="mnDvQ4BsTiSTKR6-_-a6-17">
          <mxGeometry relative="1" as="geometry" />
        </mxCell>
        <mxCell id="mnDvQ4BsTiSTKR6-_-a6-19" value="" style="endArrow=block;html=1;rounded=0;align=center;verticalAlign=bottom;endFill=0;labelBackgroundColor=none;endSize=8;" edge="1" parent="1" source="4E5Bp8gIRT2rFJFWU-uB-8" target="4E5Bp8gIRT2rFJFWU-uB-7">
          <mxGeometry relative="1" as="geometry">
            <mxPoint x="260" y="640" as="sourcePoint" />
            <mxPoint x="420" y="640" as="targetPoint" />
          </mxGeometry>
        </mxCell>
        <mxCell id="mnDvQ4BsTiSTKR6-_-a6-20" value="" style="resizable=0;html=1;align=center;verticalAlign=top;labelBackgroundColor=none;" connectable="0" vertex="1" parent="mnDvQ4BsTiSTKR6-_-a6-19">
          <mxGeometry relative="1" as="geometry" />
        </mxCell>
        <mxCell id="mnDvQ4BsTiSTKR6-_-a6-21" value="" style="endArrow=block;html=1;rounded=0;align=center;verticalAlign=bottom;endFill=0;labelBackgroundColor=none;endSize=8;" edge="1" parent="1" source="fh-KqPgcUh-lmvEO4Y0l-16" target="fh-KqPgcUh-lmvEO4Y0l-13">
          <mxGeometry relative="1" as="geometry">
            <mxPoint x="270" y="650" as="sourcePoint" />
            <mxPoint x="430" y="650" as="targetPoint" />
          </mxGeometry>
        </mxCell>
        <mxCell id="mnDvQ4BsTiSTKR6-_-a6-22" value="" style="resizable=0;html=1;align=center;verticalAlign=top;labelBackgroundColor=none;" connectable="0" vertex="1" parent="mnDvQ4BsTiSTKR6-_-a6-21">
          <mxGeometry relative="1" as="geometry" />
        </mxCell>
        <mxCell id="mnDvQ4BsTiSTKR6-_-a6-23" value="" style="endArrow=block;html=1;rounded=0;align=center;verticalAlign=bottom;endFill=0;labelBackgroundColor=none;endSize=8;" edge="1" parent="1">
          <mxGeometry relative="1" as="geometry">
            <mxPoint x="280" y="660" as="sourcePoint" />
            <mxPoint x="440" y="660" as="targetPoint" />
          </mxGeometry>
        </mxCell>
        <mxCell id="mnDvQ4BsTiSTKR6-_-a6-24" value="" style="resizable=0;html=1;align=center;verticalAlign=top;labelBackgroundColor=none;" connectable="0" vertex="1" parent="mnDvQ4BsTiSTKR6-_-a6-23">
          <mxGeometry relative="1" as="geometry" />
        </mxCell>
        <mxCell id="mnDvQ4BsTiSTKR6-_-a6-25" value="" style="endArrow=block;html=1;rounded=0;align=center;verticalAlign=bottom;endFill=0;labelBackgroundColor=none;endSize=8;" edge="1" parent="1" source="fh-KqPgcUh-lmvEO4Y0l-14" target="fh-KqPgcUh-lmvEO4Y0l-13">
          <mxGeometry relative="1" as="geometry">
            <mxPoint x="290" y="670" as="sourcePoint" />
            <mxPoint x="450" y="670" as="targetPoint" />
          </mxGeometry>
        </mxCell>
        <mxCell id="mnDvQ4BsTiSTKR6-_-a6-26" value="" style="resizable=0;html=1;align=center;verticalAlign=top;labelBackgroundColor=none;" connectable="0" vertex="1" parent="mnDvQ4BsTiSTKR6-_-a6-25">
          <mxGeometry relative="1" as="geometry" />
        </mxCell>
      </root>
    </mxGraphModel>
  </diagram>
  <diagram id="CxmfRg_bDDH54ihfuYzF" name="DCU-3-RH">
    <mxGraphModel dx="1354" dy="1010" grid="0" gridSize="10" guides="1" tooltips="1" connect="1" arrows="1" fold="1" page="0" pageScale="1" pageWidth="827" pageHeight="1169" math="0" shadow="0">
      <root>
        <mxCell id="0" />
        <mxCell id="1" parent="0" />
        <mxCell id="Ltp-7Qoq4uIvnA_G5GOE-1" value="Administrateur&lt;br&gt;" style="shape=umlActor;verticalLabelPosition=bottom;verticalAlign=top;html=1;" parent="1" vertex="1">
          <mxGeometry x="-80" y="380" width="30" height="60" as="geometry" />
        </mxCell>
        <mxCell id="Ltp-7Qoq4uIvnA_G5GOE-24" value="" style="endArrow=none;startArrow=none;endFill=0;startFill=0;endSize=8;html=1;verticalAlign=bottom;labelBackgroundColor=none;strokeWidth=1;rounded=0;" parent="1" source="Ltp-7Qoq4uIvnA_G5GOE-1" target="Ltp-7Qoq4uIvnA_G5GOE-4" edge="1">
          <mxGeometry width="160" relative="1" as="geometry">
            <mxPoint x="40" y="305" as="sourcePoint" />
            <mxPoint x="74.13105654844094" y="361.11611526676415" as="targetPoint" />
            <Array as="points">
              <mxPoint x="-65" y="105" />
            </Array>
          </mxGeometry>
        </mxCell>
        <mxCell id="Ltp-7Qoq4uIvnA_G5GOE-25" value="&amp;lt;&amp;lt;include&amp;gt;&amp;gt;" style="html=1;verticalAlign=bottom;labelBackgroundColor=none;endArrow=open;endFill=0;dashed=1;rounded=0;" parent="1" source="Ltp-7Qoq4uIvnA_G5GOE-4" target="Ltp-7Qoq4uIvnA_G5GOE-26" edge="1">
          <mxGeometry x="-0.279" y="-1" width="160" relative="1" as="geometry">
            <mxPoint x="120" y="320" as="sourcePoint" />
            <mxPoint x="260" y="308" as="targetPoint" />
            <mxPoint y="-1" as="offset" />
            <Array as="points">
              <mxPoint x="720" y="140" />
            </Array>
          </mxGeometry>
        </mxCell>
        <mxCell id="Ltp-7Qoq4uIvnA_G5GOE-26" value="&lt;font size=&quot;1&quot; style=&quot;&quot;&gt;&lt;b style=&quot;font-size: 12px;&quot;&gt;S&#39;AUTHENTIFIER&lt;/b&gt;&lt;/font&gt;" style="ellipse;whiteSpace=wrap;html=1;" parent="1" vertex="1">
          <mxGeometry x="710" y="300" width="120" height="50" as="geometry" />
        </mxCell>
        <mxCell id="Ltp-7Qoq4uIvnA_G5GOE-42" value="" style="endArrow=none;startArrow=none;endFill=0;startFill=0;endSize=8;html=1;verticalAlign=bottom;labelBackgroundColor=none;strokeWidth=1;rounded=0;" parent="1" source="Ltp-7Qoq4uIvnA_G5GOE-1" target="Ltp-7Qoq4uIvnA_G5GOE-31" edge="1">
          <mxGeometry width="160" relative="1" as="geometry">
            <mxPoint x="-40" y="413" as="sourcePoint" />
            <mxPoint x="301" y="244" as="targetPoint" />
            <Array as="points">
              <mxPoint x="50" y="275" />
            </Array>
          </mxGeometry>
        </mxCell>
        <mxCell id="Ltp-7Qoq4uIvnA_G5GOE-43" value="" style="endArrow=none;startArrow=none;endFill=0;startFill=0;endSize=8;html=1;verticalAlign=bottom;labelBackgroundColor=none;strokeWidth=1;rounded=0;" parent="1" source="Ltp-7Qoq4uIvnA_G5GOE-1" target="Ltp-7Qoq4uIvnA_G5GOE-13" edge="1">
          <mxGeometry width="160" relative="1" as="geometry">
            <mxPoint x="-30" y="423" as="sourcePoint" />
            <mxPoint x="311" y="254" as="targetPoint" />
          </mxGeometry>
        </mxCell>
        <mxCell id="Ltp-7Qoq4uIvnA_G5GOE-44" value="&amp;lt;&amp;lt;include&amp;gt;&amp;gt;" style="html=1;verticalAlign=bottom;labelBackgroundColor=none;endArrow=open;endFill=0;dashed=1;rounded=0;" parent="1" source="Ltp-7Qoq4uIvnA_G5GOE-31" target="Ltp-7Qoq4uIvnA_G5GOE-26" edge="1">
          <mxGeometry x="-0.279" y="-1" width="160" relative="1" as="geometry">
            <mxPoint x="397" y="233" as="sourcePoint" />
            <mxPoint x="873" y="297" as="targetPoint" />
            <mxPoint y="-1" as="offset" />
            <Array as="points">
              <mxPoint x="580" y="250" />
            </Array>
          </mxGeometry>
        </mxCell>
        <mxCell id="Ltp-7Qoq4uIvnA_G5GOE-45" value="&amp;lt;&amp;lt;include&amp;gt;&amp;gt;" style="html=1;verticalAlign=bottom;labelBackgroundColor=none;endArrow=open;endFill=0;dashed=1;rounded=0;" parent="1" source="Ltp-7Qoq4uIvnA_G5GOE-13" target="Ltp-7Qoq4uIvnA_G5GOE-26" edge="1">
          <mxGeometry x="-0.279" y="-1" width="160" relative="1" as="geometry">
            <mxPoint x="407" y="243" as="sourcePoint" />
            <mxPoint x="883" y="307" as="targetPoint" />
            <mxPoint y="-1" as="offset" />
          </mxGeometry>
        </mxCell>
        <mxCell id="Ltp-7Qoq4uIvnA_G5GOE-46" value="Gestion des utilisateurs" style="shape=umlFrame;whiteSpace=wrap;html=1;pointerEvents=0;recursiveResize=0;container=1;collapsible=0;width=160;" parent="1" vertex="1">
          <mxGeometry x="70" y="-160" width="810" height="980" as="geometry" />
        </mxCell>
        <mxCell id="Ltp-7Qoq4uIvnA_G5GOE-5" value="&lt;font style=&quot;font-size: 10px;&quot;&gt;EXPORTER LISTE DES CLIENTS&lt;/font&gt;" style="ellipse;whiteSpace=wrap;html=1;" parent="Ltp-7Qoq4uIvnA_G5GOE-46" vertex="1">
          <mxGeometry x="330" y="150" width="120" height="50" as="geometry" />
        </mxCell>
        <mxCell id="Ltp-7Qoq4uIvnA_G5GOE-2" value="&lt;font style=&quot;font-size: 10px;&quot;&gt;CONSULTER LISTE DES CLIENTS&lt;/font&gt;" style="ellipse;whiteSpace=wrap;html=1;" parent="Ltp-7Qoq4uIvnA_G5GOE-46" vertex="1">
          <mxGeometry x="120" y="110" width="120" height="50" as="geometry" />
        </mxCell>
        <mxCell id="Ltp-7Qoq4uIvnA_G5GOE-4" value="&lt;b&gt;GÉRER CLIENT&lt;/b&gt;" style="ellipse;whiteSpace=wrap;html=1;" parent="Ltp-7Qoq4uIvnA_G5GOE-46" vertex="1">
          <mxGeometry x="210" y="240" width="120" height="50" as="geometry" />
        </mxCell>
        <mxCell id="Ltp-7Qoq4uIvnA_G5GOE-3" value="&amp;lt;&amp;lt;include&amp;gt;&amp;gt;" style="html=1;verticalAlign=bottom;labelBackgroundColor=none;endArrow=open;endFill=0;dashed=1;rounded=0;" parent="Ltp-7Qoq4uIvnA_G5GOE-46" source="Ltp-7Qoq4uIvnA_G5GOE-4" target="Ltp-7Qoq4uIvnA_G5GOE-2" edge="1">
          <mxGeometry x="-0.279" y="-1" width="160" relative="1" as="geometry">
            <mxPoint x="240" y="400" as="sourcePoint" />
            <mxPoint x="400" y="400" as="targetPoint" />
            <mxPoint y="-1" as="offset" />
          </mxGeometry>
        </mxCell>
        <mxCell id="Ltp-7Qoq4uIvnA_G5GOE-12" value="" style="html=1;verticalAlign=bottom;labelBackgroundColor=none;endArrow=block;endFill=1;rounded=0;" parent="Ltp-7Qoq4uIvnA_G5GOE-46" source="Ltp-7Qoq4uIvnA_G5GOE-5" target="Ltp-7Qoq4uIvnA_G5GOE-4" edge="1">
          <mxGeometry width="160" relative="1" as="geometry">
            <mxPoint x="279" y="500" as="sourcePoint" />
            <mxPoint x="311" y="411" as="targetPoint" />
          </mxGeometry>
        </mxCell>
        <mxCell id="Ltp-7Qoq4uIvnA_G5GOE-31" value="&lt;b&gt;GÉRER PROFIL&lt;/b&gt;" style="ellipse;whiteSpace=wrap;html=1;" parent="Ltp-7Qoq4uIvnA_G5GOE-46" vertex="1">
          <mxGeometry x="230" y="410" width="120" height="50" as="geometry" />
        </mxCell>
        <mxCell id="Ltp-7Qoq4uIvnA_G5GOE-13" value="&lt;font style=&quot;font-size: 12px;&quot;&gt;&lt;b&gt;GÉRER UTILISATEUR&lt;/b&gt;&lt;/font&gt;" style="ellipse;whiteSpace=wrap;html=1;" parent="Ltp-7Qoq4uIvnA_G5GOE-46" vertex="1">
          <mxGeometry x="250" y="550" width="120" height="50" as="geometry" />
        </mxCell>
        <mxCell id="Ltp-7Qoq4uIvnA_G5GOE-14" value="&lt;font style=&quot;font-size: 10px;&quot;&gt;CREER UTILISATEUR&lt;/font&gt;" style="ellipse;whiteSpace=wrap;html=1;" parent="Ltp-7Qoq4uIvnA_G5GOE-46" vertex="1">
          <mxGeometry x="330" y="660" width="120" height="50" as="geometry" />
        </mxCell>
        <mxCell id="Ltp-7Qoq4uIvnA_G5GOE-17" value="" style="html=1;verticalAlign=bottom;labelBackgroundColor=none;endArrow=block;endFill=1;rounded=0;" parent="Ltp-7Qoq4uIvnA_G5GOE-46" source="Ltp-7Qoq4uIvnA_G5GOE-14" target="Ltp-7Qoq4uIvnA_G5GOE-13" edge="1">
          <mxGeometry width="160" relative="1" as="geometry">
            <mxPoint x="268" y="460" as="sourcePoint" />
            <mxPoint x="291" y="391" as="targetPoint" />
          </mxGeometry>
        </mxCell>
        <mxCell id="Ltp-7Qoq4uIvnA_G5GOE-15" value="&lt;font style=&quot;font-size: 10px;&quot;&gt;MODIFIER UTILISATEUR&lt;/font&gt;" style="ellipse;whiteSpace=wrap;html=1;" parent="Ltp-7Qoq4uIvnA_G5GOE-46" vertex="1">
          <mxGeometry x="460" y="630" width="120" height="50" as="geometry" />
        </mxCell>
        <mxCell id="Ltp-7Qoq4uIvnA_G5GOE-18" value="" style="html=1;verticalAlign=bottom;labelBackgroundColor=none;endArrow=block;endFill=1;rounded=0;" parent="Ltp-7Qoq4uIvnA_G5GOE-46" source="Ltp-7Qoq4uIvnA_G5GOE-15" target="Ltp-7Qoq4uIvnA_G5GOE-13" edge="1">
          <mxGeometry width="160" relative="1" as="geometry">
            <mxPoint x="278" y="470" as="sourcePoint" />
            <mxPoint x="301" y="401" as="targetPoint" />
          </mxGeometry>
        </mxCell>
        <mxCell id="Ltp-7Qoq4uIvnA_G5GOE-16" value="&lt;font style=&quot;font-size: 10px;&quot;&gt;SUPPRIMER UTILISATEUR&lt;/font&gt;" style="ellipse;whiteSpace=wrap;html=1;" parent="Ltp-7Qoq4uIvnA_G5GOE-46" vertex="1">
          <mxGeometry x="470" y="560" width="120" height="50" as="geometry" />
        </mxCell>
        <mxCell id="Ltp-7Qoq4uIvnA_G5GOE-19" value="" style="html=1;verticalAlign=bottom;labelBackgroundColor=none;endArrow=block;endFill=1;rounded=0;" parent="Ltp-7Qoq4uIvnA_G5GOE-46" source="Ltp-7Qoq4uIvnA_G5GOE-16" target="Ltp-7Qoq4uIvnA_G5GOE-13" edge="1">
          <mxGeometry width="160" relative="1" as="geometry">
            <mxPoint x="288" y="480" as="sourcePoint" />
            <mxPoint x="311" y="411" as="targetPoint" />
          </mxGeometry>
        </mxCell>
        <mxCell id="Ltp-7Qoq4uIvnA_G5GOE-29" value="&lt;font style=&quot;font-size: 10px;&quot;&gt;CONSULTER LISTE DES UTILISATEURS&lt;/font&gt;" style="ellipse;whiteSpace=wrap;html=1;" parent="Ltp-7Qoq4uIvnA_G5GOE-46" vertex="1">
          <mxGeometry x="180" y="660" width="120" height="50" as="geometry" />
        </mxCell>
        <mxCell id="Ltp-7Qoq4uIvnA_G5GOE-30" value="&amp;lt;&amp;lt;include&amp;gt;&amp;gt;" style="html=1;verticalAlign=bottom;labelBackgroundColor=none;endArrow=open;endFill=0;dashed=1;rounded=0;" parent="Ltp-7Qoq4uIvnA_G5GOE-46" source="Ltp-7Qoq4uIvnA_G5GOE-13" target="Ltp-7Qoq4uIvnA_G5GOE-29" edge="1">
          <mxGeometry x="-0.279" y="-1" width="160" relative="1" as="geometry">
            <mxPoint x="252" y="361" as="sourcePoint" />
            <mxPoint x="218" y="319" as="targetPoint" />
            <mxPoint y="-1" as="offset" />
          </mxGeometry>
        </mxCell>
        <mxCell id="ejhN6zoj4fO44AVPauUG-1" value="&lt;font style=&quot;font-size: 10px;&quot;&gt;MODIFIER INFO PERSO&lt;/font&gt;" style="ellipse;whiteSpace=wrap;html=1;" parent="Ltp-7Qoq4uIvnA_G5GOE-46" vertex="1">
          <mxGeometry x="90" y="480" width="120" height="50" as="geometry" />
        </mxCell>
        <mxCell id="ejhN6zoj4fO44AVPauUG-2" value="&lt;font style=&quot;font-size: 10px;&quot;&gt;MODIFIER MOT DE PASSE&lt;/font&gt;" style="ellipse;whiteSpace=wrap;html=1;" parent="Ltp-7Qoq4uIvnA_G5GOE-46" vertex="1">
          <mxGeometry x="224" y="320" width="120" height="50" as="geometry" />
        </mxCell>
        <mxCell id="ejhN6zoj4fO44AVPauUG-3" value="&lt;font style=&quot;font-size: 10px;&quot;&gt;MODIFIER PHOTO PROFIL&lt;/font&gt;" style="ellipse;whiteSpace=wrap;html=1;" parent="Ltp-7Qoq4uIvnA_G5GOE-46" vertex="1">
          <mxGeometry x="60" y="330" width="120" height="50" as="geometry" />
        </mxCell>
        <mxCell id="ejhN6zoj4fO44AVPauUG-4" value="" style="html=1;verticalAlign=bottom;labelBackgroundColor=none;endArrow=block;endFill=1;rounded=0;" parent="Ltp-7Qoq4uIvnA_G5GOE-46" source="ejhN6zoj4fO44AVPauUG-1" target="Ltp-7Qoq4uIvnA_G5GOE-31" edge="1">
          <mxGeometry width="160" relative="1" as="geometry">
            <mxPoint x="346" y="705" as="sourcePoint" />
            <mxPoint x="334" y="640" as="targetPoint" />
          </mxGeometry>
        </mxCell>
        <mxCell id="ejhN6zoj4fO44AVPauUG-5" value="" style="html=1;verticalAlign=bottom;labelBackgroundColor=none;endArrow=block;endFill=1;rounded=0;" parent="Ltp-7Qoq4uIvnA_G5GOE-46" source="ejhN6zoj4fO44AVPauUG-2" target="Ltp-7Qoq4uIvnA_G5GOE-31" edge="1">
          <mxGeometry width="160" relative="1" as="geometry">
            <mxPoint x="356" y="715" as="sourcePoint" />
            <mxPoint x="344" y="650" as="targetPoint" />
          </mxGeometry>
        </mxCell>
        <mxCell id="ejhN6zoj4fO44AVPauUG-6" value="" style="html=1;verticalAlign=bottom;labelBackgroundColor=none;endArrow=block;endFill=1;rounded=0;" parent="Ltp-7Qoq4uIvnA_G5GOE-46" source="ejhN6zoj4fO44AVPauUG-3" target="Ltp-7Qoq4uIvnA_G5GOE-31" edge="1">
          <mxGeometry width="160" relative="1" as="geometry">
            <mxPoint x="366" y="725" as="sourcePoint" />
            <mxPoint x="354" y="660" as="targetPoint" />
          </mxGeometry>
        </mxCell>
        <mxCell id="ejhN6zoj4fO44AVPauUG-7" value="&lt;font style=&quot;font-size: 12px;&quot;&gt;&lt;b&gt;GÉRER RÔLES ET PERMISSIONS&lt;/b&gt;&lt;/font&gt;" style="ellipse;whiteSpace=wrap;html=1;" parent="Ltp-7Qoq4uIvnA_G5GOE-46" vertex="1">
          <mxGeometry x="190" y="745" width="120" height="50" as="geometry" />
        </mxCell>
        <mxCell id="ejhN6zoj4fO44AVPauUG-8" value="&lt;font style=&quot;font-size: 10px;&quot;&gt;CRÉER RÔLE&lt;/font&gt;" style="ellipse;whiteSpace=wrap;html=1;" parent="Ltp-7Qoq4uIvnA_G5GOE-46" vertex="1">
          <mxGeometry x="250" y="890" width="120" height="50" as="geometry" />
        </mxCell>
        <mxCell id="ejhN6zoj4fO44AVPauUG-9" value="" style="html=1;verticalAlign=bottom;labelBackgroundColor=none;endArrow=block;endFill=1;rounded=0;" parent="Ltp-7Qoq4uIvnA_G5GOE-46" source="ejhN6zoj4fO44AVPauUG-8" target="ejhN6zoj4fO44AVPauUG-7" edge="1">
          <mxGeometry width="160" relative="1" as="geometry">
            <mxPoint x="208" y="655" as="sourcePoint" />
            <mxPoint x="231" y="586" as="targetPoint" />
          </mxGeometry>
        </mxCell>
        <mxCell id="ejhN6zoj4fO44AVPauUG-10" value="&lt;font style=&quot;font-size: 10px;&quot;&gt;MODIFIER RÔLE&lt;/font&gt;" style="ellipse;whiteSpace=wrap;html=1;" parent="Ltp-7Qoq4uIvnA_G5GOE-46" vertex="1">
          <mxGeometry x="440" y="870" width="120" height="50" as="geometry" />
        </mxCell>
        <mxCell id="ejhN6zoj4fO44AVPauUG-11" value="" style="html=1;verticalAlign=bottom;labelBackgroundColor=none;endArrow=block;endFill=1;rounded=0;" parent="Ltp-7Qoq4uIvnA_G5GOE-46" source="ejhN6zoj4fO44AVPauUG-10" target="ejhN6zoj4fO44AVPauUG-7" edge="1">
          <mxGeometry width="160" relative="1" as="geometry">
            <mxPoint x="218" y="665" as="sourcePoint" />
            <mxPoint x="241" y="596" as="targetPoint" />
          </mxGeometry>
        </mxCell>
        <mxCell id="ejhN6zoj4fO44AVPauUG-12" value="&lt;font style=&quot;font-size: 10px;&quot;&gt;SUPPRIMER RÔLE&lt;/font&gt;" style="ellipse;whiteSpace=wrap;html=1;" parent="Ltp-7Qoq4uIvnA_G5GOE-46" vertex="1">
          <mxGeometry x="410" y="755" width="120" height="50" as="geometry" />
        </mxCell>
        <mxCell id="ejhN6zoj4fO44AVPauUG-13" value="" style="html=1;verticalAlign=bottom;labelBackgroundColor=none;endArrow=block;endFill=1;rounded=0;" parent="Ltp-7Qoq4uIvnA_G5GOE-46" source="ejhN6zoj4fO44AVPauUG-12" target="ejhN6zoj4fO44AVPauUG-7" edge="1">
          <mxGeometry width="160" relative="1" as="geometry">
            <mxPoint x="228" y="675" as="sourcePoint" />
            <mxPoint x="251" y="606" as="targetPoint" />
          </mxGeometry>
        </mxCell>
        <mxCell id="ejhN6zoj4fO44AVPauUG-14" value="&lt;font style=&quot;font-size: 10px;&quot;&gt;CONSULTER LISTE DES RÔLES&lt;/font&gt;" style="ellipse;whiteSpace=wrap;html=1;" parent="Ltp-7Qoq4uIvnA_G5GOE-46" vertex="1">
          <mxGeometry x="70" y="870" width="120" height="50" as="geometry" />
        </mxCell>
        <mxCell id="ejhN6zoj4fO44AVPauUG-15" value="&amp;lt;&amp;lt;include&amp;gt;&amp;gt;" style="html=1;verticalAlign=bottom;labelBackgroundColor=none;endArrow=open;endFill=0;dashed=1;rounded=0;" parent="Ltp-7Qoq4uIvnA_G5GOE-46" source="ejhN6zoj4fO44AVPauUG-7" target="ejhN6zoj4fO44AVPauUG-14" edge="1">
          <mxGeometry x="-0.279" y="-1" width="160" relative="1" as="geometry">
            <mxPoint x="192" y="556" as="sourcePoint" />
            <mxPoint x="158" y="514" as="targetPoint" />
            <mxPoint y="-1" as="offset" />
          </mxGeometry>
        </mxCell>
        <mxCell id="SS8Kb1CTyZzSVoFPUnO1-1" value="&lt;font style=&quot;font-size: 12px;&quot;&gt;&lt;b&gt;CHANGER DE LANGUE&lt;/b&gt;&lt;/font&gt;" style="ellipse;whiteSpace=wrap;html=1;" parent="Ltp-7Qoq4uIvnA_G5GOE-46" vertex="1">
          <mxGeometry x="50" y="590" width="120" height="50" as="geometry" />
        </mxCell>
        <mxCell id="SS8Kb1CTyZzSVoFPUnO1-3" value="&lt;font style=&quot;font-size: 12px;&quot;&gt;&lt;b&gt;CONSULTER NOTIFICATION&lt;/b&gt;&lt;/font&gt;" style="ellipse;whiteSpace=wrap;html=1;" parent="Ltp-7Qoq4uIvnA_G5GOE-46" vertex="1">
          <mxGeometry x="40" y="680" width="120" height="50" as="geometry" />
        </mxCell>
        <mxCell id="ejhN6zoj4fO44AVPauUG-16" value="" style="endArrow=none;startArrow=none;endFill=0;startFill=0;endSize=8;html=1;verticalAlign=bottom;labelBackgroundColor=none;strokeWidth=1;rounded=0;" parent="1" source="Ltp-7Qoq4uIvnA_G5GOE-1" target="ejhN6zoj4fO44AVPauUG-7" edge="1">
          <mxGeometry width="160" relative="1" as="geometry">
            <mxPoint x="-20" y="440" as="sourcePoint" />
            <mxPoint x="330" y="426" as="targetPoint" />
            <Array as="points">
              <mxPoint x="30" y="610" />
            </Array>
          </mxGeometry>
        </mxCell>
        <mxCell id="SS8Kb1CTyZzSVoFPUnO1-2" value="" style="endArrow=none;startArrow=none;endFill=0;startFill=0;endSize=8;html=1;verticalAlign=bottom;labelBackgroundColor=none;strokeWidth=1;rounded=0;" parent="1" source="Ltp-7Qoq4uIvnA_G5GOE-1" target="SS8Kb1CTyZzSVoFPUnO1-1" edge="1">
          <mxGeometry width="160" relative="1" as="geometry">
            <mxPoint x="-50" y="430" as="sourcePoint" />
            <mxPoint x="330" y="426" as="targetPoint" />
          </mxGeometry>
        </mxCell>
        <mxCell id="SS8Kb1CTyZzSVoFPUnO1-4" value="" style="endArrow=none;startArrow=none;endFill=0;startFill=0;endSize=8;html=1;verticalAlign=bottom;labelBackgroundColor=none;strokeWidth=1;rounded=0;" parent="1" source="Ltp-7Qoq4uIvnA_G5GOE-1" target="SS8Kb1CTyZzSVoFPUnO1-3" edge="1">
          <mxGeometry width="160" relative="1" as="geometry">
            <mxPoint x="-40" y="423" as="sourcePoint" />
            <mxPoint x="135" y="455" as="targetPoint" />
          </mxGeometry>
        </mxCell>
      </root>
    </mxGraphModel>
  </diagram>
  <diagram id="ggmZ8VnCwzQpHfJGPRj2" name="DS-1-AUTH">
    <mxGraphModel dx="1305" dy="304" grid="1" gridSize="10" guides="1" tooltips="1" connect="1" arrows="1" fold="1" page="1" pageScale="1" pageWidth="827" pageHeight="1169" math="0" shadow="0">
      <root>
        <mxCell id="0" />
        <mxCell id="1" parent="0" />
        <mxCell id="bF1Re2KAg_82YZjI6xNf-5" value="PageConnexion" style="shape=umlLifeline;perimeter=lifelinePerimeter;whiteSpace=wrap;html=1;container=1;dropTarget=0;collapsible=0;recursiveResize=0;outlineConnect=0;portConstraint=eastwest;newEdgeStyle={&quot;edgeStyle&quot;:&quot;elbowEdgeStyle&quot;,&quot;elbow&quot;:&quot;vertical&quot;,&quot;curved&quot;:0,&quot;rounded&quot;:0};" parent="1" vertex="1">
          <mxGeometry x="260" y="60" width="100" height="410" as="geometry" />
        </mxCell>
        <mxCell id="bF1Re2KAg_82YZjI6xNf-12" value="" style="html=1;points=[[0,0,0,0,5],[0,1,0,0,-5],[1,0,0,0,5],[1,1,0,0,-5]];perimeter=orthogonalPerimeter;outlineConnect=0;targetShapes=umlLifeline;portConstraint=eastwest;newEdgeStyle={&quot;curved&quot;:0,&quot;rounded&quot;:0};" parent="bF1Re2KAg_82YZjI6xNf-5" vertex="1">
          <mxGeometry x="45" y="60" width="10" height="350" as="geometry" />
        </mxCell>
        <mxCell id="bF1Re2KAg_82YZjI6xNf-29" value="" style="html=1;points=[[0,0,0,0,5],[0,1,0,0,-5],[1,0,0,0,5],[1,1,0,0,-5]];perimeter=orthogonalPerimeter;outlineConnect=0;targetShapes=umlLifeline;portConstraint=eastwest;newEdgeStyle={&quot;curved&quot;:0,&quot;rounded&quot;:0};" parent="bF1Re2KAg_82YZjI6xNf-5" vertex="1">
          <mxGeometry x="45" y="130" width="10" height="60" as="geometry" />
        </mxCell>
        <mxCell id="bF1Re2KAg_82YZjI6xNf-30" value="Ajouter token &lt;br&gt;au formulaire" style="html=1;align=left;spacingLeft=2;endArrow=block;rounded=0;edgeStyle=orthogonalEdgeStyle;curved=0;rounded=0;" parent="bF1Re2KAg_82YZjI6xNf-5" source="bF1Re2KAg_82YZjI6xNf-12" target="bF1Re2KAg_82YZjI6xNf-29" edge="1">
          <mxGeometry relative="1" as="geometry">
            <mxPoint x="60" y="120" as="sourcePoint" />
            <Array as="points">
              <mxPoint x="90" y="130" />
              <mxPoint x="90" y="170" />
            </Array>
          </mxGeometry>
        </mxCell>
        <mxCell id="bF1Re2KAg_82YZjI6xNf-6" value="Firebase" style="shape=umlLifeline;perimeter=lifelinePerimeter;whiteSpace=wrap;html=1;container=1;dropTarget=0;collapsible=0;recursiveResize=0;outlineConnect=0;portConstraint=eastwest;newEdgeStyle={&quot;edgeStyle&quot;:&quot;elbowEdgeStyle&quot;,&quot;elbow&quot;:&quot;vertical&quot;,&quot;curved&quot;:0,&quot;rounded&quot;:0};" parent="1" vertex="1">
          <mxGeometry x="460" y="60" width="100" height="390" as="geometry" />
        </mxCell>
        <mxCell id="bF1Re2KAg_82YZjI6xNf-15" value="" style="html=1;points=[[0,0,0,0,5],[0,1,0,0,-5],[1,0,0,0,5],[1,1,0,0,-5]];perimeter=orthogonalPerimeter;outlineConnect=0;targetShapes=umlLifeline;portConstraint=eastwest;newEdgeStyle={&quot;curved&quot;:0,&quot;rounded&quot;:0};" parent="bF1Re2KAg_82YZjI6xNf-6" vertex="1">
          <mxGeometry x="45" y="60" width="10" height="80" as="geometry" />
        </mxCell>
        <mxCell id="bF1Re2KAg_82YZjI6xNf-7" value="" style="shape=umlLifeline;perimeter=lifelinePerimeter;whiteSpace=wrap;html=1;container=1;dropTarget=0;collapsible=0;recursiveResize=0;outlineConnect=0;portConstraint=eastwest;newEdgeStyle={&quot;curved&quot;:0,&quot;rounded&quot;:0};participant=umlActor;" parent="1" vertex="1">
          <mxGeometry x="120" y="60" width="20" height="400" as="geometry" />
        </mxCell>
        <mxCell id="bF1Re2KAg_82YZjI6xNf-11" value="" style="html=1;points=[[0,0,0,0,5],[0,1,0,0,-5],[1,0,0,0,5],[1,1,0,0,-5]];perimeter=orthogonalPerimeter;outlineConnect=0;targetShapes=umlLifeline;portConstraint=eastwest;newEdgeStyle={&quot;curved&quot;:0,&quot;rounded&quot;:0};" parent="bF1Re2KAg_82YZjI6xNf-7" vertex="1">
          <mxGeometry x="5" y="60" width="10" height="310" as="geometry" />
        </mxCell>
        <mxCell id="bF1Re2KAg_82YZjI6xNf-10" value="ouvrir PageConnexion()&amp;nbsp;" style="html=1;verticalAlign=bottom;labelBackgroundColor=none;endArrow=open;endFill=0;rounded=0;" parent="1" target="bF1Re2KAg_82YZjI6xNf-12" edge="1">
          <mxGeometry width="160" relative="1" as="geometry">
            <mxPoint x="135" y="120" as="sourcePoint" />
            <mxPoint x="309.5000000000002" y="120" as="targetPoint" />
          </mxGeometry>
        </mxCell>
        <mxCell id="bF1Re2KAg_82YZjI6xNf-14" value="" style="html=1;verticalAlign=bottom;labelBackgroundColor=none;endArrow=block;endFill=1;rounded=0;" parent="1" target="bF1Re2KAg_82YZjI6xNf-15" edge="1">
          <mxGeometry width="160" relative="1" as="geometry">
            <mxPoint x="320" y="140" as="sourcePoint" />
            <mxPoint x="550" y="140" as="targetPoint" />
          </mxGeometry>
        </mxCell>
        <mxCell id="bF1Re2KAg_82YZjI6xNf-16" value="Obtenir token()" style="edgeLabel;html=1;align=center;verticalAlign=middle;resizable=0;points=[];" parent="bF1Re2KAg_82YZjI6xNf-14" vertex="1" connectable="0">
          <mxGeometry x="-0.1423" y="1" relative="1" as="geometry">
            <mxPoint as="offset" />
          </mxGeometry>
        </mxCell>
        <mxCell id="bF1Re2KAg_82YZjI6xNf-17" value="" style="html=1;verticalAlign=bottom;labelBackgroundColor=none;endArrow=open;endFill=0;dashed=1;rounded=0;" parent="1" source="bF1Re2KAg_82YZjI6xNf-15" target="bF1Re2KAg_82YZjI6xNf-12" edge="1">
          <mxGeometry width="160" relative="1" as="geometry">
            <mxPoint x="270" y="300" as="sourcePoint" />
            <mxPoint x="430" y="300" as="targetPoint" />
          </mxGeometry>
        </mxCell>
        <mxCell id="bF1Re2KAg_82YZjI6xNf-18" value="Renvoie token" style="edgeLabel;html=1;align=center;verticalAlign=middle;resizable=0;points=[];" parent="bF1Re2KAg_82YZjI6xNf-17" vertex="1" connectable="0">
          <mxGeometry x="-0.0809" relative="1" as="geometry">
            <mxPoint as="offset" />
          </mxGeometry>
        </mxCell>
        <mxCell id="bF1Re2KAg_82YZjI6xNf-19" value="" style="html=1;verticalAlign=bottom;labelBackgroundColor=none;endArrow=block;endFill=1;rounded=0;" parent="1" edge="1">
          <mxGeometry width="160" relative="1" as="geometry">
            <mxPoint x="135" y="180" as="sourcePoint" />
            <mxPoint x="305" y="180" as="targetPoint" />
          </mxGeometry>
        </mxCell>
        <mxCell id="bF1Re2KAg_82YZjI6xNf-20" value="Saisir identifiant()" style="edgeLabel;html=1;align=center;verticalAlign=middle;resizable=0;points=[];" parent="bF1Re2KAg_82YZjI6xNf-19" vertex="1" connectable="0">
          <mxGeometry x="0.2406" y="1" relative="1" as="geometry">
            <mxPoint x="-20" as="offset" />
          </mxGeometry>
        </mxCell>
        <mxCell id="bF1Re2KAg_82YZjI6xNf-31" value="Microservice d&#39;authentification" style="shape=umlLifeline;perimeter=lifelinePerimeter;whiteSpace=wrap;html=1;container=1;dropTarget=0;collapsible=0;recursiveResize=0;outlineConnect=0;portConstraint=eastwest;newEdgeStyle={&quot;edgeStyle&quot;:&quot;elbowEdgeStyle&quot;,&quot;elbow&quot;:&quot;vertical&quot;,&quot;curved&quot;:0,&quot;rounded&quot;:0};" parent="1" vertex="1">
          <mxGeometry x="570" y="60" width="100" height="390" as="geometry" />
        </mxCell>
        <mxCell id="bF1Re2KAg_82YZjI6xNf-32" value="" style="html=1;points=[[0,0,0,0,5],[0,1,0,0,-5],[1,0,0,0,5],[1,1,0,0,-5]];perimeter=orthogonalPerimeter;outlineConnect=0;targetShapes=umlLifeline;portConstraint=eastwest;newEdgeStyle={&quot;curved&quot;:0,&quot;rounded&quot;:0};" parent="bF1Re2KAg_82YZjI6xNf-31" vertex="1">
          <mxGeometry x="45" y="150" width="10" height="70" as="geometry" />
        </mxCell>
        <mxCell id="bF1Re2KAg_82YZjI6xNf-33" value="Enoyer requête de connexion()" style="html=1;verticalAlign=bottom;endArrow=block;curved=0;rounded=0;" parent="1" target="bF1Re2KAg_82YZjI6xNf-32" edge="1">
          <mxGeometry width="80" relative="1" as="geometry">
            <mxPoint x="315" y="250" as="sourcePoint" />
            <mxPoint x="659.5" y="250" as="targetPoint" />
          </mxGeometry>
        </mxCell>
        <mxCell id="bF1Re2KAg_82YZjI6xNf-36" value="" style="html=1;verticalAlign=bottom;labelBackgroundColor=none;endArrow=open;endFill=0;dashed=1;rounded=0;" parent="1" target="bF1Re2KAg_82YZjI6xNf-12" edge="1">
          <mxGeometry width="160" relative="1" as="geometry">
            <mxPoint x="620" y="270.0000000000001" as="sourcePoint" />
            <mxPoint x="320" y="270.0000000000001" as="targetPoint" />
          </mxGeometry>
        </mxCell>
        <mxCell id="bF1Re2KAg_82YZjI6xNf-37" value="Reponse" style="edgeLabel;html=1;align=center;verticalAlign=middle;resizable=0;points=[];" parent="bF1Re2KAg_82YZjI6xNf-36" vertex="1" connectable="0">
          <mxGeometry x="-0.0809" relative="1" as="geometry">
            <mxPoint as="offset" />
          </mxGeometry>
        </mxCell>
        <mxCell id="bF1Re2KAg_82YZjI6xNf-38" value="alt" style="shape=umlFrame;whiteSpace=wrap;html=1;pointerEvents=0;recursiveResize=0;container=1;collapsible=0;width=50;height=20;" parent="1" vertex="1">
          <mxGeometry y="310" width="770" height="160" as="geometry" />
        </mxCell>
        <mxCell id="bF1Re2KAg_82YZjI6xNf-39" value="&lt;font style=&quot;font-size: 10px;&quot;&gt;[identifiants incorrects]&lt;/font&gt;" style="text;html=1;" parent="bF1Re2KAg_82YZjI6xNf-38" vertex="1">
          <mxGeometry width="100" height="20" relative="1" as="geometry">
            <mxPoint x="20" y="40" as="offset" />
          </mxGeometry>
        </mxCell>
        <mxCell id="bF1Re2KAg_82YZjI6xNf-40" value="&lt;font style=&quot;font-size: 10px;&quot;&gt;[identifiants correctes]&lt;/font&gt;" style="line;strokeWidth=1;dashed=1;labelPosition=center;verticalLabelPosition=bottom;align=left;verticalAlign=top;spacingLeft=20;spacingTop=15;html=1;whiteSpace=wrap;" parent="bF1Re2KAg_82YZjI6xNf-38" vertex="1">
          <mxGeometry y="70" width="770" height="10" as="geometry" />
        </mxCell>
        <mxCell id="bF1Re2KAg_82YZjI6xNf-42" value="" style="html=1;verticalAlign=bottom;labelBackgroundColor=none;endArrow=open;endFill=0;dashed=1;rounded=0;" parent="bF1Re2KAg_82YZjI6xNf-38" edge="1">
          <mxGeometry width="160" relative="1" as="geometry">
            <mxPoint x="305" y="20" as="sourcePoint" />
            <mxPoint x="135" y="20" as="targetPoint" />
          </mxGeometry>
        </mxCell>
        <mxCell id="bF1Re2KAg_82YZjI6xNf-43" value="Retourne message d&#39;erreur" style="edgeLabel;html=1;align=center;verticalAlign=middle;resizable=0;points=[];" parent="bF1Re2KAg_82YZjI6xNf-42" vertex="1" connectable="0">
          <mxGeometry x="-0.0809" relative="1" as="geometry">
            <mxPoint as="offset" />
          </mxGeometry>
        </mxCell>
        <mxCell id="bF1Re2KAg_82YZjI6xNf-46" value="" style="html=1;verticalAlign=bottom;labelBackgroundColor=none;endArrow=open;endFill=0;dashed=1;rounded=0;" parent="bF1Re2KAg_82YZjI6xNf-38" edge="1">
          <mxGeometry width="160" relative="1" as="geometry">
            <mxPoint x="305" y="90" as="sourcePoint" />
            <mxPoint x="135" y="90" as="targetPoint" />
          </mxGeometry>
        </mxCell>
        <mxCell id="bF1Re2KAg_82YZjI6xNf-47" value="Retourne message de succès" style="edgeLabel;html=1;align=center;verticalAlign=middle;resizable=0;points=[];" parent="bF1Re2KAg_82YZjI6xNf-46" vertex="1" connectable="0">
          <mxGeometry x="-0.0809" relative="1" as="geometry">
            <mxPoint as="offset" />
          </mxGeometry>
        </mxCell>
        <mxCell id="bF1Re2KAg_82YZjI6xNf-48" value="" style="html=1;verticalAlign=bottom;labelBackgroundColor=none;endArrow=block;endFill=1;rounded=0;" parent="bF1Re2KAg_82YZjI6xNf-38" target="bF1Re2KAg_82YZjI6xNf-49" edge="1">
          <mxGeometry width="160" relative="1" as="geometry">
            <mxPoint x="315" y="150" as="sourcePoint" />
            <mxPoint x="735" y="150" as="targetPoint" />
          </mxGeometry>
        </mxCell>
        <mxCell id="bF1Re2KAg_82YZjI6xNf-53" value="Ouvrir page du dashboard()" style="edgeLabel;html=1;align=center;verticalAlign=middle;resizable=0;points=[];" parent="bF1Re2KAg_82YZjI6xNf-48" vertex="1" connectable="0">
          <mxGeometry x="0.1541" y="3" relative="1" as="geometry">
            <mxPoint as="offset" />
          </mxGeometry>
        </mxCell>
        <mxCell id="u_IbUFkueJz0rtt-xbiZ-1" value="" style="html=1;points=[[0,0,0,0,5],[0,1,0,0,-5],[1,0,0,0,5],[1,1,0,0,-5]];perimeter=orthogonalPerimeter;outlineConnect=0;targetShapes=umlLifeline;portConstraint=eastwest;newEdgeStyle={&quot;curved&quot;:0,&quot;rounded&quot;:0};" parent="bF1Re2KAg_82YZjI6xNf-38" vertex="1">
          <mxGeometry x="305" y="100" width="10" height="40" as="geometry" />
        </mxCell>
        <mxCell id="bF1Re2KAg_82YZjI6xNf-49" value="PageDashboard" style="shape=umlLifeline;perimeter=lifelinePerimeter;whiteSpace=wrap;html=1;container=1;dropTarget=0;collapsible=0;recursiveResize=0;outlineConnect=0;portConstraint=eastwest;newEdgeStyle={&quot;edgeStyle&quot;:&quot;elbowEdgeStyle&quot;,&quot;elbow&quot;:&quot;vertical&quot;,&quot;curved&quot;:0,&quot;rounded&quot;:0};" parent="1" vertex="1">
          <mxGeometry x="690" y="60" width="100" height="410" as="geometry" />
        </mxCell>
        <mxCell id="bF1Re2KAg_82YZjI6xNf-50" value="" style="html=1;points=[[0,0,0,0,5],[0,1,0,0,-5],[1,0,0,0,5],[1,1,0,0,-5]];perimeter=orthogonalPerimeter;outlineConnect=0;targetShapes=umlLifeline;portConstraint=eastwest;newEdgeStyle={&quot;curved&quot;:0,&quot;rounded&quot;:0};" parent="bF1Re2KAg_82YZjI6xNf-49" vertex="1">
          <mxGeometry x="45" y="350" width="10" height="30" as="geometry" />
        </mxCell>
        <mxCell id="u_IbUFkueJz0rtt-xbiZ-2" value="Enregistre réponse&amp;nbsp;&lt;br&gt;en localStorage" style="html=1;align=left;spacingLeft=2;endArrow=block;rounded=0;edgeStyle=orthogonalEdgeStyle;curved=0;rounded=0;" parent="1" source="bF1Re2KAg_82YZjI6xNf-12" target="u_IbUFkueJz0rtt-xbiZ-1" edge="1">
          <mxGeometry relative="1" as="geometry">
            <mxPoint x="310" y="380" as="sourcePoint" />
            <Array as="points">
              <mxPoint x="340" y="400" />
              <mxPoint x="340" y="440" />
            </Array>
          </mxGeometry>
        </mxCell>
        <mxCell id="9RsBT3Mp0zNSIhCZ6fl6-1" value="DS authentification" style="shape=umlFrame;whiteSpace=wrap;html=1;pointerEvents=0;recursiveResize=0;container=1;collapsible=0;width=160;" parent="1" vertex="1">
          <mxGeometry x="-20" y="10" width="830" height="490" as="geometry" />
        </mxCell>
      </root>
    </mxGraphModel>
  </diagram>
  <diagram id="3_0B9Yzplf8WNQsawzNK" name="DS-2-RECUPERATION MOT DE PASSE">
    <mxGraphModel dx="867" dy="555" grid="1" gridSize="10" guides="1" tooltips="1" connect="1" arrows="1" fold="1" page="1" pageScale="1" pageWidth="827" pageHeight="1169" math="0" shadow="0">
      <root>
        <mxCell id="0" />
        <mxCell id="1" parent="0" />
        <mxCell id="afSreOFlM31sehm2ylnS-1" value="PageRéinitialisaton&lt;br&gt;Mot de passe" style="shape=umlLifeline;perimeter=lifelinePerimeter;whiteSpace=wrap;html=1;container=1;dropTarget=0;collapsible=0;recursiveResize=0;outlineConnect=0;portConstraint=eastwest;newEdgeStyle={&quot;edgeStyle&quot;:&quot;elbowEdgeStyle&quot;,&quot;elbow&quot;:&quot;vertical&quot;,&quot;curved&quot;:0,&quot;rounded&quot;:0};" parent="1" vertex="1">
          <mxGeometry x="260" y="60" width="110" height="390" as="geometry" />
        </mxCell>
        <mxCell id="afSreOFlM31sehm2ylnS-2" value="" style="html=1;points=[[0,0,0,0,5],[0,1,0,0,-5],[1,0,0,0,5],[1,1,0,0,-5]];perimeter=orthogonalPerimeter;outlineConnect=0;targetShapes=umlLifeline;portConstraint=eastwest;newEdgeStyle={&quot;curved&quot;:0,&quot;rounded&quot;:0};" parent="afSreOFlM31sehm2ylnS-1" vertex="1">
          <mxGeometry x="50" y="60" width="10" height="300" as="geometry" />
        </mxCell>
        <mxCell id="afSreOFlM31sehm2ylnS-7" value="" style="shape=umlLifeline;perimeter=lifelinePerimeter;whiteSpace=wrap;html=1;container=1;dropTarget=0;collapsible=0;recursiveResize=0;outlineConnect=0;portConstraint=eastwest;newEdgeStyle={&quot;curved&quot;:0,&quot;rounded&quot;:0};participant=umlActor;" parent="1" vertex="1">
          <mxGeometry x="120" y="60" width="20" height="390" as="geometry" />
        </mxCell>
        <mxCell id="afSreOFlM31sehm2ylnS-8" value="" style="html=1;points=[[0,0,0,0,5],[0,1,0,0,-5],[1,0,0,0,5],[1,1,0,0,-5]];perimeter=orthogonalPerimeter;outlineConnect=0;targetShapes=umlLifeline;portConstraint=eastwest;newEdgeStyle={&quot;curved&quot;:0,&quot;rounded&quot;:0};" parent="afSreOFlM31sehm2ylnS-7" vertex="1">
          <mxGeometry x="5" y="60" width="10" height="310" as="geometry" />
        </mxCell>
        <mxCell id="afSreOFlM31sehm2ylnS-9" value="ouvrir PageRéinitialisation()&amp;nbsp;" style="html=1;verticalAlign=bottom;labelBackgroundColor=none;endArrow=open;endFill=0;rounded=0;" parent="1" target="afSreOFlM31sehm2ylnS-2" edge="1">
          <mxGeometry width="160" relative="1" as="geometry">
            <mxPoint x="135" y="120" as="sourcePoint" />
            <mxPoint x="309.5000000000002" y="120" as="targetPoint" />
            <mxPoint as="offset" />
          </mxGeometry>
        </mxCell>
        <mxCell id="afSreOFlM31sehm2ylnS-14" value="" style="html=1;verticalAlign=bottom;labelBackgroundColor=none;endArrow=block;endFill=1;rounded=0;" parent="1" source="afSreOFlM31sehm2ylnS-8" target="afSreOFlM31sehm2ylnS-2" edge="1">
          <mxGeometry width="160" relative="1" as="geometry">
            <mxPoint x="140" y="160" as="sourcePoint" />
            <mxPoint x="310" y="160" as="targetPoint" />
            <Array as="points">
              <mxPoint x="230" y="160" />
              <mxPoint x="270" y="160" />
            </Array>
          </mxGeometry>
        </mxCell>
        <mxCell id="afSreOFlM31sehm2ylnS-15" value="Saisir email()" style="edgeLabel;html=1;align=center;verticalAlign=middle;resizable=0;points=[];" parent="afSreOFlM31sehm2ylnS-14" vertex="1" connectable="0">
          <mxGeometry x="0.2406" y="1" relative="1" as="geometry">
            <mxPoint x="-20" as="offset" />
          </mxGeometry>
        </mxCell>
        <mxCell id="afSreOFlM31sehm2ylnS-16" value="Microservice d&#39;authentification" style="shape=umlLifeline;perimeter=lifelinePerimeter;whiteSpace=wrap;html=1;container=1;dropTarget=0;collapsible=0;recursiveResize=0;outlineConnect=0;portConstraint=eastwest;newEdgeStyle={&quot;edgeStyle&quot;:&quot;elbowEdgeStyle&quot;,&quot;elbow&quot;:&quot;vertical&quot;,&quot;curved&quot;:0,&quot;rounded&quot;:0};" parent="1" vertex="1">
          <mxGeometry x="450" y="60" width="100" height="390" as="geometry" />
        </mxCell>
        <mxCell id="afSreOFlM31sehm2ylnS-17" value="" style="html=1;points=[[0,0,0,0,5],[0,1,0,0,-5],[1,0,0,0,5],[1,1,0,0,-5]];perimeter=orthogonalPerimeter;outlineConnect=0;targetShapes=umlLifeline;portConstraint=eastwest;newEdgeStyle={&quot;curved&quot;:0,&quot;rounded&quot;:0};" parent="afSreOFlM31sehm2ylnS-16" vertex="1">
          <mxGeometry x="45" y="90" width="10" height="260" as="geometry" />
        </mxCell>
        <mxCell id="afSreOFlM31sehm2ylnS-21" value="alt" style="shape=umlFrame;whiteSpace=wrap;html=1;pointerEvents=0;recursiveResize=0;container=1;collapsible=0;width=50;height=20;" parent="1" vertex="1">
          <mxGeometry y="280" width="670" height="160" as="geometry" />
        </mxCell>
        <mxCell id="afSreOFlM31sehm2ylnS-22" value="&lt;font style=&quot;font-size: 10px;&quot;&gt;[OTP incorrect]&lt;/font&gt;" style="text;html=1;" parent="afSreOFlM31sehm2ylnS-21" vertex="1">
          <mxGeometry width="100" height="20" relative="1" as="geometry">
            <mxPoint x="20" y="40" as="offset" />
          </mxGeometry>
        </mxCell>
        <mxCell id="afSreOFlM31sehm2ylnS-23" value="&lt;font style=&quot;font-size: 10px;&quot;&gt;[OTP correct]&lt;/font&gt;" style="line;strokeWidth=1;dashed=1;labelPosition=center;verticalLabelPosition=bottom;align=left;verticalAlign=top;spacingLeft=20;spacingTop=15;html=1;whiteSpace=wrap;" parent="afSreOFlM31sehm2ylnS-21" vertex="1">
          <mxGeometry y="70" width="670" height="10" as="geometry" />
        </mxCell>
        <mxCell id="afSreOFlM31sehm2ylnS-26" value="" style="html=1;verticalAlign=bottom;labelBackgroundColor=none;endArrow=open;endFill=0;dashed=1;rounded=0;" parent="afSreOFlM31sehm2ylnS-21" source="afSreOFlM31sehm2ylnS-17" edge="1">
          <mxGeometry width="160" relative="1" as="geometry">
            <mxPoint x="305" y="100" as="sourcePoint" />
            <mxPoint x="135" y="100" as="targetPoint" />
          </mxGeometry>
        </mxCell>
        <mxCell id="afSreOFlM31sehm2ylnS-27" value="Retourne message de succès" style="edgeLabel;html=1;align=center;verticalAlign=middle;resizable=0;points=[];" parent="afSreOFlM31sehm2ylnS-26" vertex="1" connectable="0">
          <mxGeometry x="-0.0809" relative="1" as="geometry">
            <mxPoint as="offset" />
          </mxGeometry>
        </mxCell>
        <mxCell id="afSreOFlM31sehm2ylnS-30" value="" style="html=1;verticalAlign=bottom;labelBackgroundColor=none;endArrow=block;endFill=1;rounded=0;" parent="afSreOFlM31sehm2ylnS-21" target="afSreOFlM31sehm2ylnS-29" edge="1">
          <mxGeometry width="160" relative="1" as="geometry">
            <mxPoint x="320" y="130" as="sourcePoint" />
            <mxPoint x="724.9999999999998" y="130" as="targetPoint" />
          </mxGeometry>
        </mxCell>
        <mxCell id="afSreOFlM31sehm2ylnS-31" value="Ouvrir page de connexion()" style="edgeLabel;html=1;align=center;verticalAlign=middle;resizable=0;points=[];" parent="afSreOFlM31sehm2ylnS-30" vertex="1" connectable="0">
          <mxGeometry x="0.1541" y="3" relative="1" as="geometry">
            <mxPoint as="offset" />
          </mxGeometry>
        </mxCell>
        <mxCell id="afSreOFlM31sehm2ylnS-24" value="" style="html=1;verticalAlign=bottom;labelBackgroundColor=none;endArrow=open;endFill=0;dashed=1;rounded=0;" parent="afSreOFlM31sehm2ylnS-21" edge="1">
          <mxGeometry width="160" relative="1" as="geometry">
            <mxPoint x="495" y="20" as="sourcePoint" />
            <mxPoint x="135" y="20" as="targetPoint" />
            <Array as="points">
              <mxPoint x="310" y="20" />
            </Array>
          </mxGeometry>
        </mxCell>
        <mxCell id="afSreOFlM31sehm2ylnS-25" value="Retourne message d&#39;erreur" style="edgeLabel;html=1;align=center;verticalAlign=middle;resizable=0;points=[];" parent="afSreOFlM31sehm2ylnS-24" vertex="1" connectable="0">
          <mxGeometry x="-0.0809" relative="1" as="geometry">
            <mxPoint as="offset" />
          </mxGeometry>
        </mxCell>
        <mxCell id="afSreOFlM31sehm2ylnS-28" value="PageConnexion" style="shape=umlLifeline;perimeter=lifelinePerimeter;whiteSpace=wrap;html=1;container=1;dropTarget=0;collapsible=0;recursiveResize=0;outlineConnect=0;portConstraint=eastwest;newEdgeStyle={&quot;edgeStyle&quot;:&quot;elbowEdgeStyle&quot;,&quot;elbow&quot;:&quot;vertical&quot;,&quot;curved&quot;:0,&quot;rounded&quot;:0};" parent="1" vertex="1">
          <mxGeometry x="590" y="60" width="100" height="390" as="geometry" />
        </mxCell>
        <mxCell id="afSreOFlM31sehm2ylnS-29" value="" style="html=1;points=[[0,0,0,0,5],[0,1,0,0,-5],[1,0,0,0,5],[1,1,0,0,-5]];perimeter=orthogonalPerimeter;outlineConnect=0;targetShapes=umlLifeline;portConstraint=eastwest;newEdgeStyle={&quot;curved&quot;:0,&quot;rounded&quot;:0};" parent="afSreOFlM31sehm2ylnS-28" vertex="1">
          <mxGeometry x="45" y="350" width="10" height="30" as="geometry" />
        </mxCell>
        <mxCell id="pbUcb3wBXWWiK8j0TXZa-1" value="" style="html=1;verticalAlign=bottom;labelBackgroundColor=none;endArrow=block;endFill=1;rounded=0;" parent="1" source="afSreOFlM31sehm2ylnS-2" target="afSreOFlM31sehm2ylnS-17" edge="1">
          <mxGeometry width="160" relative="1" as="geometry">
            <mxPoint x="320" y="180" as="sourcePoint" />
            <mxPoint x="490" y="180" as="targetPoint" />
            <Array as="points">
              <mxPoint x="415" y="180" />
              <mxPoint x="455" y="180" />
            </Array>
          </mxGeometry>
        </mxCell>
        <mxCell id="pbUcb3wBXWWiK8j0TXZa-2" value="Requête demande OTP()" style="edgeLabel;html=1;align=center;verticalAlign=middle;resizable=0;points=[];" parent="pbUcb3wBXWWiK8j0TXZa-1" vertex="1" connectable="0">
          <mxGeometry x="0.2406" y="1" relative="1" as="geometry">
            <mxPoint x="-20" as="offset" />
          </mxGeometry>
        </mxCell>
        <mxCell id="pbUcb3wBXWWiK8j0TXZa-10" value="" style="html=1;verticalAlign=bottom;labelBackgroundColor=none;endArrow=open;endFill=0;dashed=1;rounded=0;" parent="1" edge="1">
          <mxGeometry width="160" relative="1" as="geometry">
            <mxPoint x="497.56" y="200" as="sourcePoint" />
            <mxPoint x="132.435" y="200" as="targetPoint" />
          </mxGeometry>
        </mxCell>
        <mxCell id="pbUcb3wBXWWiK8j0TXZa-11" value="Envoyer OTP par email" style="edgeLabel;html=1;align=center;verticalAlign=middle;resizable=0;points=[];" parent="pbUcb3wBXWWiK8j0TXZa-10" vertex="1" connectable="0">
          <mxGeometry x="-0.0809" relative="1" as="geometry">
            <mxPoint x="-30" as="offset" />
          </mxGeometry>
        </mxCell>
        <mxCell id="pbUcb3wBXWWiK8j0TXZa-12" value="" style="html=1;verticalAlign=bottom;labelBackgroundColor=none;endArrow=block;endFill=1;rounded=0;" parent="1" edge="1">
          <mxGeometry width="160" relative="1" as="geometry">
            <mxPoint x="135" y="241" as="sourcePoint" />
            <mxPoint x="310" y="241" as="targetPoint" />
            <Array as="points">
              <mxPoint x="235" y="241" />
              <mxPoint x="275" y="241" />
            </Array>
          </mxGeometry>
        </mxCell>
        <mxCell id="pbUcb3wBXWWiK8j0TXZa-13" value="Saisir OTP et nouveau&lt;br&gt;&amp;nbsp;Mot de passe()" style="edgeLabel;html=1;align=center;verticalAlign=middle;resizable=0;points=[];" parent="pbUcb3wBXWWiK8j0TXZa-12" vertex="1" connectable="0">
          <mxGeometry x="0.2406" y="1" relative="1" as="geometry">
            <mxPoint x="-20" as="offset" />
          </mxGeometry>
        </mxCell>
        <mxCell id="pbUcb3wBXWWiK8j0TXZa-14" value="" style="html=1;verticalAlign=bottom;labelBackgroundColor=none;endArrow=block;endFill=1;rounded=0;" parent="1" source="afSreOFlM31sehm2ylnS-2" target="afSreOFlM31sehm2ylnS-17" edge="1">
          <mxGeometry width="160" relative="1" as="geometry">
            <mxPoint x="320" y="254.69" as="sourcePoint" />
            <mxPoint x="495" y="254.69" as="targetPoint" />
            <Array as="points">
              <mxPoint x="421" y="254.69" />
              <mxPoint x="461" y="254.69" />
            </Array>
          </mxGeometry>
        </mxCell>
        <mxCell id="pbUcb3wBXWWiK8j0TXZa-15" value="Requête changement&amp;nbsp;&lt;br&gt;mot de passe()" style="edgeLabel;html=1;align=center;verticalAlign=middle;resizable=0;points=[];" parent="pbUcb3wBXWWiK8j0TXZa-14" vertex="1" connectable="0">
          <mxGeometry x="0.2406" y="1" relative="1" as="geometry">
            <mxPoint x="-20" as="offset" />
          </mxGeometry>
        </mxCell>
      </root>
    </mxGraphModel>
  </diagram>
  <diagram id="PbeyrmeJvyEp5kS0Hw32" name="Page-7">
    <mxGraphModel dx="1194" dy="760" grid="1" gridSize="10" guides="1" tooltips="1" connect="1" arrows="1" fold="1" page="1" pageScale="1" pageWidth="827" pageHeight="1169" math="0" shadow="0">
      <root>
        <mxCell id="0" />
        <mxCell id="1" parent="0" />
      </root>
    </mxGraphModel>
  </diagram>
</mxfile>
